<?xml version="1.0" encoding="UTF-8"?>
<svg version="1.1" xmlns="http://www.w3.org/2000/svg" width="500" height="500">
<path d="M0 0 C4.94076358 3.32922546 7.89968966 8.13543804 11 13.125 C11.88042969 12.20976562 12.76085937 11.29453125 13.66796875 10.3515625 C14.84073976 9.15064498 16.01393949 7.95014602 17.1875 6.75 C17.76564453 6.14671875 18.34378906 5.5434375 18.93945312 4.921875 C23.15670123 0.63314811 26.25353309 -1.56983701 32.375 -2.25 C38.55317292 -1.61087866 41.50821598 0.37304885 45.44140625 4.9921875 C52 13.4016884 52 13.4016884 52 16.125 C52.53367188 15.84712646 53.06734375 15.56925293 53.6171875 15.28295898 C56.0679505 14.02180185 58.53330864 12.79219132 61 11.5625 C61.83917969 11.12486328 62.67835938 10.68722656 63.54296875 10.23632812 C69.28372201 7.41045346 72.7412995 6.58250675 79 8.125 C83.86385446 10.60281265 86.17856224 12.96425967 88 18.125 C88.49287757 24.04317167 87.14964055 28.18361542 84.89453125 33.515625 C84.57344894 34.30088562 84.25236664 35.08614624 83.92155457 35.89520264 C82.89657409 38.39333206 81.85464708 40.88399073 80.8125 43.375 C80.13108524 45.03210994 79.45073691 46.68965884 78.77148438 48.34765625 C75.62364005 55.99344305 72.47211161 63.56048355 68.6237793 70.88964844 C67.76489335 73.96751916 68.57436647 75.31097064 70 78.125 C70.40814941 78.94846924 70.81629883 79.77193848 71.23681641 80.62036133 C71.68718262 81.4739624 72.13754883 82.32756348 72.6015625 83.20703125 C73.04322754 84.0472583 73.48489258 84.88748535 73.93994141 85.75317383 C74.49601074 86.80400146 75.05208008 87.8548291 75.625 88.9375 C77.39875 92.299375 79.1725 95.66125 81 99.125 C95.85 99.62 95.85 99.62 111 100.125 C110.97381592 97.45510986 110.94763184 94.78521973 110.9206543 92.03442383 C110.83780932 83.21357819 110.78257789 74.39271537 110.74093914 65.57158375 C110.71484441 60.22321305 110.67944812 54.87524092 110.62280273 49.52709961 C110.56847928 44.36588817 110.53857854 39.20506009 110.52561378 34.04358482 C110.51637455 32.07435762 110.49833231 30.10515143 110.47134972 28.13608742 C110.43505487 25.3777799 110.43005481 22.62105669 110.43237305 19.86254883 C110.40540848 18.6411898 110.40540848 18.6411898 110.37789917 17.39515686 C110.41443019 13.37851136 110.72281014 11.53799937 113.01728821 8.11933899 C116.80754679 5.58504772 119.87837969 5.41994924 124.29101562 5.47802734 C125.11276779 5.46926575 125.93451996 5.46050415 126.78117371 5.45147705 C129.49007396 5.42951961 132.19733395 5.44402206 134.90625 5.4609375 C136.79284986 5.4575683 138.6794476 5.45271481 140.56604004 5.44644165 C144.51705624 5.4390753 148.46750667 5.44976812 152.41845703 5.47314453 C157.47960697 5.50163226 162.53943122 5.485227 167.60053253 5.45528221 C171.49540166 5.43720278 175.38995717 5.44297021 179.28483582 5.45592117 C181.15073301 5.4592534 183.01665879 5.45517453 184.88252258 5.44352341 C187.49210879 5.43080381 190.09955718 5.45020539 192.70898438 5.47802734 C193.86245613 5.46284561 193.86245613 5.46284561 195.03923035 5.44735718 C198.70474091 5.51965267 200.87062174 6.04256553 203.97697449 8.02180481 C206.88472643 12.48211527 206.70572106 16.19953518 206.65942383 21.4230957 C206.66990753 22.45770432 206.68039124 23.49231293 206.69119263 24.55827332 C206.71995838 27.97274711 206.71364893 31.3862079 206.70703125 34.80078125 C206.72014527 37.17019421 206.73544858 39.53959599 206.75285339 41.90898132 C206.79275029 48.14134605 206.80289694 54.37341863 206.80688477 60.605896 C206.81620725 66.96717213 206.85361532 73.32827597 206.88867188 79.68945312 C206.95329572 92.16796067 206.98649656 104.64633977 207 117.125 C208.44160211 115.6850919 209.8829617 114.24494099 211.32421875 112.8046875 C212.52824341 111.60175049 212.52824341 111.60175049 213.7565918 110.37451172 C215.03018613 109.09745239 216.30081062 107.81737094 217.56176758 106.52783203 C223.71824407 100.23796321 223.71824407 100.23796321 228.32421875 99.83203125 C240.4708674 100.80014884 254.82613038 120.24573662 262.48828125 129.1171875 C266.1264802 133.32581251 269.99360551 137.26642457 273.9375 141.1875 C274.60201172 141.85587891 275.26652344 142.52425781 275.95117188 143.21289062 C279.90084914 147.15490605 283.96640486 150.89637594 288.19018555 154.54223633 C290.52917605 156.58778812 292.74453893 158.73683081 294.9375 160.9375 C295.68902344 161.68644531 296.44054687 162.43539062 297.21484375 163.20703125 C299.63163291 165.80362529 299.96809232 166.84314887 300.375 170.4375 C300 174.125 300 174.125 298.1875 177.0625 C295 179.125 295 179.125 284 179.125 C284.33 189.685 284.66 200.245 285 211.125 C286.65 210.465 288.3 209.805 290 209.125 C300.46172393 207.94582797 309.01412445 209.70109542 317.3125 216.25 C322.45027381 221.05496255 326.67952906 228.47380335 327.17016602 235.59472656 C327.22568524 243.22957738 326.38579013 250.38692621 324.9375 257.875 C324.71634521 259.03805664 324.49519043 260.20111328 324.26733398 261.39941406 C320.87796124 278.52393245 315.94060912 295.10958929 309 311.125 C308.48329787 312.40138318 307.96904503 313.67876015 307.45703125 314.95703125 C298.95286737 335.78837891 285.93946613 353.32087301 270.453125 369.4609375 C268.30417807 371.70756383 266.24775564 373.98288745 264.28125 376.390625 C262.36751821 378.68448159 260.52492761 380.58478317 258.25 382.5 C256.11685571 384.30801821 254.01219329 386.11351288 251.9765625 388.03125 C245.57285898 394.0302585 238.44358145 398.56318127 231 403.125 C229.77596961 403.88790523 228.55201112 404.65092584 227.328125 405.4140625 C201.43339342 421.41311143 173.22038844 432.09679086 143 436.125 C142.35886827 436.21450141 141.71773655 436.30400282 141.05717659 436.39621639 C132.12162237 437.46948572 123.13150492 437.25724044 114.14794922 437.23852539 C112.24502056 437.23824297 110.3420918 437.23840232 108.43916321 437.2389679 C103.29734774 437.23925373 98.1555558 437.23339159 93.01374578 437.22639394 C87.63124557 437.22012478 82.24874476 437.21955379 76.86624146 437.21836853 C66.68447871 437.2152657 56.50272675 437.20706647 46.32096875 437.19701904 C34.72482834 437.18582531 23.12868741 437.18033925 11.53254294 437.17532361 C-12.31164401 437.16488296 -36.1558214 437.14730386 -60 437.125 C-59.9685791 437.98665771 -59.9685791 437.98665771 -59.93652344 438.86572266 C-59.85286236 441.49363374 -59.8011854 444.1212639 -59.75 446.75 C-59.71648437 447.65363281 -59.68296875 448.55726563 -59.6484375 449.48828125 C-59.56432478 455.25000289 -60.08953893 458.58175523 -64 463.125 C-68.32759329 466.93740361 -70.64606836 468.24514578 -76.36425781 468.30200195 C-77.48592346 468.31483719 -78.60758911 468.32767242 -79.76324463 468.34089661 C-80.98090515 468.34828354 -82.19856567 468.35567047 -83.453125 468.36328125 C-84.70123962 468.371353 -85.94935425 468.37942474 -87.23529053 468.38774109 C-89.88167034 468.40159297 -92.52792512 468.4126057 -95.17431641 468.42016602 C-98.55491089 468.43121073 -101.93484352 468.46558662 -105.31520462 468.50533772 C-108.54861221 468.53786485 -111.78207875 468.54228862 -115.015625 468.55078125 C-116.8299704 468.57704338 -116.8299704 468.57704338 -118.68096924 468.60383606 C-125.08106678 468.58732866 -129.18795668 468.53368976 -134 464.125 C-138.30753644 459.23536404 -139.14885331 456.38674182 -139.14717102 450.01544189 C-139.15084771 449.27475991 -139.1545244 448.53407793 -139.1583125 447.77095103 C-139.16937171 445.27600471 -139.17319696 442.7811 -139.17700195 440.28613281 C-139.18326493 438.50249091 -139.18991158 436.71885033 -139.19691467 434.93521118 C-139.21434012 430.07971425 -139.2248807 425.22422717 -139.2331202 420.3687067 C-139.23826723 417.33638652 -139.2443431 414.30406942 -139.25063133 411.2717514 C-139.26968796 401.78797763 -139.28391793 392.30421166 -139.2922433 382.82042241 C-139.3020176 371.86631309 -139.32834021 360.91240573 -139.36874419 349.95836759 C-139.39888731 341.49630601 -139.41371047 333.03430237 -139.41702431 324.57218814 C-139.41937692 319.51600363 -139.42836463 314.46003478 -139.45348549 309.40390778 C-139.47673955 304.64654054 -139.48101018 299.88953134 -139.47072411 295.13212204 C-139.47022798 293.38661637 -139.47657101 291.64109323 -139.49028015 289.89564133 C-139.50796187 287.51082867 -139.50091218 285.1273061 -139.48774719 282.74249268 C-139.49871644 282.05318137 -139.50968568 281.36387007 -139.52098733 280.65367055 C-139.45521505 275.71213445 -138.05640416 272.94760397 -135 269.125 C-130.67240671 265.31259639 -128.35393164 264.00485422 -122.63574219 263.94799805 C-121.51407654 263.93516281 -120.39241089 263.92232758 -119.23675537 263.90910339 C-118.01909485 263.90171646 -116.80143433 263.89432953 -115.546875 263.88671875 C-114.29876038 263.878647 -113.05064575 263.87057526 -111.76470947 263.86225891 C-109.11832966 263.84840703 -106.47207488 263.8373943 -103.82568359 263.82983398 C-100.44508911 263.81878927 -97.06515648 263.78441338 -93.68479538 263.74466228 C-90.45138779 263.71213515 -87.21792125 263.70771138 -83.984375 263.69921875 C-82.7748114 263.68171066 -81.5652478 263.66420258 -80.31903076 263.64616394 C-73.91893322 263.66267134 -69.81204332 263.71631024 -65 268.125 C-61.48072146 272.11985672 -59.86883554 274.40101533 -59.90234375 279.6953125 C-59.90717773 281.03916016 -59.90717773 281.03916016 -59.91210938 282.41015625 C-59.92467773 283.81587891 -59.92467773 283.81587891 -59.9375 285.25 C-59.94201172 286.19488281 -59.94652344 287.13976562 -59.95117188 288.11328125 C-59.96297643 290.45058387 -59.97944241 292.78776061 -60 295.125 C-58.56333984 294.2896875 -58.56333984 294.2896875 -57.09765625 293.4375 C-36.28228487 281.44848126 -15.62470641 273.55906575 7.875 268.3125 C9.17268311 268.02016479 9.17268311 268.02016479 10.49658203 267.72192383 C28.70473467 263.87300466 46.87700672 263.78386459 65.396662 263.75755429 C67.66410099 263.75387449 69.93151899 263.74761707 72.19894981 263.7405529 C80.13614216 263.71620041 88.07327027 263.70303335 96.01049805 263.69946289 C103.36971674 263.69581786 110.72852104 263.66581708 118.08761293 263.62405831 C124.44734051 263.58925474 130.80693094 263.57391288 137.16675299 263.57321686 C140.94754923 263.57242879 144.72791917 263.56390551 148.50861549 263.53521919 C152.06061559 263.50885691 155.61184054 263.50693246 159.16389465 263.52287483 C161.06753974 263.52552324 162.97117109 263.50364128 164.87467957 263.48068237 C178.35088659 263.59396463 188.57121915 268.727544 198 278.125 C199.98166117 280.67156911 201.57153918 283.23715929 203 286.125 C203.66635865 287.4584873 204.3329882 288.79183929 205 290.125 C206.3003418 289.55785278 206.3003418 289.55785278 207.62695312 288.97924805 C210.87657649 287.56307399 214.12698716 286.14873743 217.37792969 284.7355957 C218.77863483 284.12629219 220.1790322 283.51628058 221.57910156 282.90551758 C241.71039452 274.125 241.71039452 274.125 246 274.125 C246.22945313 273.32835937 246.45890625 272.53171875 246.6953125 271.7109375 C248.35495013 267.1494185 250.57430495 263.01601181 252.875 258.75 C253.74819621 257.11761539 254.62060038 255.48480683 255.4921875 253.8515625 C256.07009033 252.77769287 256.07009033 252.77769287 256.65966797 251.68212891 C257.82719339 249.45468605 258.9609542 247.21533665 260.08377075 244.96517944 C260.44292635 244.24575354 260.80208195 243.52632763 261.17212105 242.78510094 C261.4453211 242.23726763 261.71852116 241.68943432 262 241.125 C261.03300052 241.12727832 261.03300052 241.12727832 260.04646569 241.12960267 C221.80896388 241.21918223 183.57147763 241.28778019 145.3338923 241.32926132 C140.73911488 241.33426394 136.14433766 241.33944125 131.54956055 241.34472656 C130.63485185 241.3457758 129.72014315 241.34682505 128.777716 241.34790608 C113.98135292 241.36529491 99.18505221 241.39682419 84.38872609 241.43361118 C69.19791051 241.47106301 54.00712752 241.49324481 38.81626767 241.50135398 C29.44830613 241.50683296 20.08052095 241.5241162 10.71261372 241.55666587 C4.28218704 241.57786615 -2.14814893 241.58418761 -8.578608 241.57900551 C-12.28455197 241.57645227 -15.99018852 241.58027014 -19.69607735 241.6018219 C-23.72484442 241.62507874 -27.75296458 241.61690497 -31.78178406 241.60601807 C-32.93843825 241.61766943 -34.09509243 241.6293208 -35.28679675 241.64132524 C-47.77172211 241.55054314 -59.24080509 238.08765045 -69 230.125 C-79.60669148 219.33699756 -84.31607594 207.02805899 -84.30078125 192.09765625 C-84.30506638 191.15047226 -84.3093515 190.20328827 -84.31376648 189.22740173 C-84.31948506 187.22802525 -84.32002837 185.22862797 -84.31567383 183.22924805 C-84.31254155 180.22732261 -84.33590795 177.22641133 -84.36132812 174.22460938 C-84.40011596 162.52236199 -83.56474355 151.54645748 -81 140.125 C-80.80656006 139.24126709 -80.61312012 138.35753418 -80.41381836 137.44702148 C-79.93037398 135.38346177 -79.39567497 133.34988562 -78.8125 131.3125 C-78.60455811 130.58297119 -78.39661621 129.85344238 -78.18237305 129.10180664 C-72.3093686 109.26386927 -63.94093609 89.81331156 -49 75.125 C-50.3146204 70.12944247 -52.66474224 66.18683858 -55.34619141 61.83691406 C-58.10862515 57.30707733 -60.64120826 52.65367895 -63.1875 48 C-63.70763672 47.06285156 -64.22777344 46.12570313 -64.76367188 45.16015625 C-69.20404011 37.05067148 -73.23131203 29.60610262 -72 20.125 C-70.72272697 15.89403308 -69.11323024 13.87682209 -65.375 11.6875 C-57.26437367 8.20942961 -48.93349278 11.87256808 -41.02758789 14.48413086 C-35.5494744 16.24028144 -35.5494744 16.24028144 -30 15.125 C-28.15453839 13.54745746 -28.15453839 13.54745746 -26.625 11.5 C-11.77706569 -6.44663364 -11.77706569 -6.44663364 0 0 Z " fill="#090808" transform="translate(154,16.875)"/>
<path d="M0 0 C5.25387664 1.91547586 8.55500391 4.91440813 11 10 C11.63217442 17.64931048 9.79081863 24.86445956 8.1875 32.3125 C7.79594727 34.19485352 7.79594727 34.19485352 7.39648438 36.11523438 C-0.74323719 74.68344596 -17.68383994 108.48036158 -45 137 C-45.47695313 137.50418457 -45.95390625 138.00836914 -46.4453125 138.52783203 C-53.72540759 146.19480383 -61.3951882 152.86076448 -70 159 C-70.55993652 159.40428223 -71.11987305 159.80856445 -71.69677734 160.22509766 C-90.46475677 173.6581791 -111.37905103 184.1054087 -134 189 C-135.56124818 189.35524795 -137.12244169 189.71073617 -138.68359375 190.06640625 C-140.37209017 190.44148285 -142.06089403 190.81517806 -143.75 191.1875 C-144.54253174 191.36684082 -145.33506348 191.54618164 -146.15161133 191.73095703 C-151.21125247 192.81437156 -155.8256839 193.17129585 -161 193 C-161 193.66 -161 194.32 -161 195 C-226.67 195 -292.34 195 -360 195 C-360.20625 177.819375 -360.4125 160.63875 -360.625 142.9375 C-360.71604004 137.51948975 -360.80708008 132.10147949 -360.90087891 126.51928711 C-360.94604492 119.88586426 -360.94604492 119.88586426 -360.95443726 116.77711487 C-360.96976015 114.61304652 -361.00486578 112.44906188 -361.05575562 110.28553772 C-361.46445994 91.98997506 -361.46445994 91.98997506 -357.8442688 87.07069397 C-355.2610087 85.22969501 -352.96302877 84.09613864 -350 83 C-348.68394087 82.2159869 -347.38021212 81.41005507 -346.1015625 80.56640625 C-344.94553728 79.89355343 -343.78675319 79.22541384 -342.625 78.5625 C-342.03589844 78.21251953 -341.44679688 77.86253906 -340.83984375 77.50195312 C-337.52028114 75.59600201 -335.93921343 75 -332 75 C-332 74.34 -332 73.68 -332 73 C-314.75901944 65.62255814 -314.75901944 65.62255814 -306.7421875 63.671875 C-304.79576929 63.19497481 -302.86383929 62.65711774 -300.9453125 62.078125 C-278.65078109 55.50604091 -255.79891002 54.37550444 -232.70217848 54.46269798 C-229.07501173 54.47307094 -225.44787826 54.4633706 -221.82070923 54.45715332 C-215.75832652 54.44996223 -209.69614151 54.4592532 -203.63378906 54.47851562 C-196.65150083 54.50044635 -189.66967707 54.49308264 -182.68739927 54.47121 C-176.63491949 54.45302075 -170.58257872 54.45050953 -164.53008044 54.46096468 C-160.93909803 54.4671577 -157.34833404 54.4681487 -153.75736618 54.45481873 C-149.77214312 54.44104422 -145.78743831 54.46016725 -141.80224609 54.48242188 C-140.63337357 54.47432495 -139.46450104 54.46622803 -138.26020813 54.45788574 C-129.95668401 54.5436189 -124.32529381 56.44414457 -117.25 60.625 C-112.65579586 65.47443771 -109.74618882 71.27617963 -109.375 78 C-109.79561831 85.23008771 -113.02828281 91.5289955 -118.3125 96.4375 C-125.4916719 102.4954914 -133.85815624 102.42202609 -142.75 102.34057617 C-144.00937881 102.34101425 -145.26875763 102.34145233 -146.56629944 102.34190369 C-149.99766516 102.34275975 -153.42871233 102.32519772 -156.86000443 102.30418181 C-160.45409758 102.28534963 -164.0481991 102.28365944 -167.64233398 102.28010559 C-174.43846165 102.27080424 -181.23444347 102.24621656 -188.03050709 102.21605712 C-195.77175806 102.18245338 -203.51301623 102.16601213 -211.25432205 102.15097082 C-227.16963463 102.11966511 -243.08479272 102.06633342 -259 102 C-259 106.95 -259 111.9 -259 117 C-241.88330026 116.98510314 -224.76695215 116.94373648 -207.65041828 116.86790943 C-199.70172919 116.83335235 -191.75321184 116.80791616 -183.80444336 116.80444336 C-176.87099843 116.80139047 -169.93786011 116.78072343 -163.00453347 116.73947543 C-159.33808085 116.71826283 -155.67206281 116.70548354 -152.00554848 116.71384621 C-147.89821438 116.72288257 -143.79202511 116.69256832 -139.68481445 116.65942383 C-138.48790482 116.66804947 -137.29099518 116.67667511 -136.05781555 116.68556213 C-124.82642367 116.5345448 -114.23469582 113.46966446 -106.00390625 105.51171875 C-101.54418252 99.9218506 -97.96369278 92.92190975 -96.25708008 85.9765625 C-94.6415023 82.15113537 -93.2487012 81.60933387 -89.4765625 80.0078125 C-88.373125 79.53085937 -87.2696875 79.05390625 -86.1328125 78.5625 C-84.39644531 77.8509375 -84.39644531 77.8509375 -82.625 77.125 C-81.47515625 76.62742187 -80.3253125 76.12984375 -79.140625 75.6171875 C-70.61439732 72 -70.61439732 72 -66 72 C-66 71.34 -66 70.68 -66 70 C-62.535 69.505 -62.535 69.505 -59 69 C-59 68.34 -59 67.68 -59 67 C-57.29204966 66.37395415 -55.58362002 65.74921585 -53.875 65.125 C-52.37259766 64.57005859 -52.37259766 64.57005859 -50.83984375 64.00390625 C-48 63 -48 63 -44.4375 62.0625 C-41.81201087 61.24408409 -41.81201087 61.24408409 -41.01733398 58.79711914 C-40.68161377 57.87406982 -40.34589355 56.95102051 -40 56 C-38.07239114 51.78806259 -36.06234867 47.61554294 -34.0625 43.4375 C-33.52431641 42.30119141 -32.98613281 41.16488281 -32.43164062 39.99414062 C-31.90892578 38.90166016 -31.38621094 37.80917969 -30.84765625 36.68359375 C-30.37336182 35.68900146 -29.89906738 34.69440918 -29.41040039 33.66967773 C-28.11871863 31.22471668 -26.68920581 29.17806077 -25 27 C-24.3450639 25.50033 -23.74287316 23.97682194 -23.1875 22.4375 C-18.82617588 11.22740453 -13.87651878 -1.13741957 0 0 Z " fill="#FDE2CE" transform="translate(454,242)"/>
<path d="M0 0 C1.99680182 0.00409888 3.99361276 0.00493346 5.99041748 0.00265503 C10.16360368 0.00742443 14.33504078 0.04255713 18.5078125 0.10107422 C23.85717339 0.17492604 29.20442405 0.18673182 34.55421829 0.17772102 C38.67217731 0.17519682 42.78966682 0.1982692 46.90749359 0.22985458 C48.88024407 0.24324693 50.85304797 0.25031483 52.82584381 0.25094986 C55.57918904 0.25708132 58.33012146 0.29593697 61.08300781 0.34423828 C61.89762482 0.34040131 62.71224182 0.33656433 63.55154419 0.33261108 C67.49203881 0.43689079 69.26421764 0.65512416 72.12957764 3.46359253 C74.82529952 7.99246716 74.82529952 7.99246716 75.921875 10.2421875 C76.25703125 10.91636719 76.5921875 11.59054688 76.9375 12.28515625 C77.671875 14.0546875 77.671875 14.0546875 77.671875 16.0546875 C76.56328125 16.08046875 75.4546875 16.10625 74.3125 16.1328125 C72.84891953 16.18910406 71.38537938 16.24645117 69.921875 16.3046875 C68.82746094 16.32595703 68.82746094 16.32595703 67.7109375 16.34765625 C64.34969635 16.50043994 62.15318982 16.67949584 59.46114731 18.7779808 C57.34115955 21.47549661 57.16708061 22.70054728 57.15289307 26.09136963 C57.13202385 27.61416534 57.13202385 27.61416534 57.11073303 29.16772461 C57.11827858 30.82928589 57.11827858 30.82928589 57.12597656 32.52441406 C57.11047005 34.28093292 57.11047005 34.28093292 57.09465027 36.07293701 C57.06513029 39.94720102 57.06372108 43.82094467 57.0625 47.6953125 C57.04972676 50.38005369 57.03099404 53.0647444 57.01239014 55.74945068 C56.97182859 62.09585651 56.95148916 68.44215958 56.93841624 74.78867507 C56.92254664 82.01484099 56.88413128 89.24083204 56.84382296 96.46689653 C56.76142206 111.32943117 56.7073312 126.19196378 56.671875 141.0546875 C46.02276853 141.12440143 35.37371695 141.17760706 24.72442818 141.21012402 C19.77876817 141.22573574 14.83326505 141.24689142 9.88769531 141.28100586 C5.10903266 141.31376021 0.3305203 141.33157426 -4.448246 141.33931923 C-6.26537565 141.344834 -8.0824977 141.35560259 -9.89956284 141.37187767 C-23.38102039 141.4877535 -33.9051172 141.43578935 -44.125 131.6015625 C-50.65132533 124.05694528 -52.47344897 116.33809318 -52.56640625 106.6171875 C-52.57606415 105.78833038 -52.58572205 104.95947327 -52.59567261 104.10549927 C-52.62052905 101.42185015 -52.6330701 98.73843937 -52.640625 96.0546875 C-52.64357574 95.14652283 -52.64652649 94.23835815 -52.64956665 93.30267334 C-52.65936085 80.1185152 -52.03520825 67.78415721 -48.328125 55.0546875 C-48.10125 54.11882812 -47.874375 53.18296875 -47.640625 52.21875 C-45.72665456 44.82603917 -42.3058369 37.88704143 -39.17114258 30.94824219 C-38.35778664 29.12131236 -37.58240829 27.27761966 -36.80859375 25.43359375 C-35.40407572 22.22803148 -33.87407411 19.21837026 -32.140625 16.1796875 C-31.61082031 15.23351562 -31.08101562 14.28734375 -30.53515625 13.3125 C-29.80683594 12.23742187 -29.07851562 11.16234375 -28.328125 10.0546875 C-27.91533798 9.31224792 -27.50255096 8.56980835 -27.07725525 7.80487061 C-20.50577873 -1.90208033 -10.53567288 -0.17832371 0 0 Z " fill="#FBBD09" transform="translate(138.328125,100.9453125)"/>
<path d="M0 0 C20.79 0 41.58 0 63 0 C64.20326428 27.24725114 64.20326428 27.24725114 64.46484375 39.05859375 C64.64281688 47.05623235 64.8506845 55.04091445 65.26318359 63.03076172 C67.65359971 110.53250427 67.65359971 110.53250427 56.22363281 124.12792969 C50.7225829 130.20007243 44.44544507 135.56912746 37.63891983 140.13552475 C34.36071656 142.41082422 33.09078681 143.70496868 31.90036011 147.57351685 C31.68142939 151.37592368 31.68142939 151.37592368 35 155 C38.96 155.33 42.92 155.66 47 156 C47 171.51 47 187.02 47 203 C31.49 203 15.98 203 0 203 C0 136.01 0 69.02 0 0 Z " fill="#59A1FC" transform="translate(281,39)"/>
<path d="M0 0 C15.51 0 31.02 0 47 0 C47 56.76 47 113.52 47 172 C31.49 172 15.98 172 0 172 C0 115.24 0 58.48 0 0 Z " fill="#2B67B2" transform="translate(31,297)"/>
<path d="M0 0 C18.15 0 36.3 0 55 0 C55 35.97 55 71.94 55 109 C36.85 109 18.7 109 0 109 C0 73.03 0 37.06 0 0 Z " fill="#589FF8" transform="translate(211,133)"/>
<path d="M0 0 C1.35275588 1.72461735 2.63334715 3.50624651 3.875 5.3125 C7.26801862 10.35106177 7.26801862 10.35106177 12 14 C16.66180115 14.70864936 21.30638046 14.61586165 25.75 13 C28.54500824 10.51554823 30.9526686 7.80314701 33.3515625 4.9375 C34.83964861 3.18846988 36.27916723 1.52117814 38 0 C38.66 0 39.32 0 40 0 C41.55848718 1.90744636 43.00887269 3.81149859 44.4375 5.8125 C48.67900688 12.19442523 48.67900688 12.19442523 55 16 C61.4972034 16.68391615 65.17227404 15.25656339 70.80078125 11.99609375 C73 11 73 11 76 12 C70.39 25.53 64.78 39.06 59 53 C52.07 53 45.14 53 38 53 C40.70231456 45.79382785 43.39924612 38.801424 47 32 C46.0925 31.87625 45.185 31.7525 44.25 31.625 C41 31 41 31 38.9375 29.875 C36.99469344 28.84227911 36.99469344 28.84227911 34.6328125 28.96875 C30.59658635 30.54970505 29.60486155 33.87594256 27.9375 37.625 C27.28193859 39.03478156 26.62439731 40.44364421 25.96484375 41.8515625 C25.48700439 42.88458496 25.48700439 42.88458496 24.99951172 43.93847656 C23.48834547 47.0553031 21.75804651 50.01641105 20 53 C15.38 53 10.76 53 6 53 C4 49 4 49 4 46 C3.34 46 2.68 46 2 46 C0 41.33333333 -2 36.66666667 -4 32 C-8.58403214 32.54571811 -11.92604189 33.87043099 -16 36 C-16.66 36 -17.32 36 -18 36 C-17.4946875 37.14339844 -16.989375 38.28679687 -16.46875 39.46484375 C-15.81240396 40.95568689 -15.15615918 42.44657461 -14.5 43.9375 C-14.16613281 44.69224609 -13.83226562 45.44699219 -13.48828125 46.22460938 C-11 51.88671875 -11 51.88671875 -11 53 C-15.62 53 -20.24 53 -25 53 C-26.31855095 50.75335738 -27.62993972 48.50302694 -28.9375 46.25 C-29.31068359 45.61578125 -29.68386719 44.9815625 -30.06835938 44.328125 C-31.85536764 41.23708368 -33.24885273 38.48532332 -34 35 C-34.66 35 -35.32 35 -36 35 C-38.81517551 31.1611243 -40.31202327 26.77815524 -42.015625 22.375 C-43.10505497 19.74653403 -44.49410879 17.40942593 -46 15 C-46 14.34 -46 13.68 -46 13 C-41.38985554 13.87193879 -36.8607668 14.73286548 -32.375 16.125 C-27.2518583 17.45322192 -22.98412343 18.1251599 -18.17578125 15.3984375 C-14.50848533 12.62879458 -11.41868309 9.56436967 -8.25 6.25 C-2.26766595 0 -2.26766595 0 0 0 Z " fill="#FBBC09" transform="translate(147,33)"/>
<path d="M0 0 C4.95 0 9.9 0 15 0 C15 2.64 15 5.28 15 8 C15.81984375 7.94199219 16.6396875 7.88398438 17.484375 7.82421875 C26.20661157 7.45905334 26.20661157 7.45905334 29.75 9.875 C31 13 31 13 31 23 C20.44 23 9.88 23 -1 23 C-1 25.64 -1 28.28 -1 31 C-0.23856689 30.98428955 0.52286621 30.9685791 1.30737305 30.95239258 C4.7673394 30.88991547 8.2271869 30.85096828 11.6875 30.8125 C12.88568359 30.78736328 14.08386719 30.76222656 15.31835938 30.73632812 C16.47529297 30.72666016 17.63222656 30.71699219 18.82421875 30.70703125 C19.88729248 30.6913208 20.95036621 30.67561035 22.0456543 30.65942383 C25.42477331 31.04896775 27.27990964 31.99204546 30 34 C32.27424718 38.54849436 31.18502536 44.88116822 31.1875 49.875 C31.19974609 51.16792969 31.21199219 52.46085937 31.22460938 53.79296875 C31.22654297 55.03433594 31.22847656 56.27570313 31.23046875 57.5546875 C31.23457764 58.69405762 31.23868652 59.83342773 31.24291992 61.00732422 C31.00543654 63.933024 30.59429624 65.56796259 29 68 C25.94081441 70.1148283 23.40751199 70.22125032 19.75 70.125 C18.85796875 70.10695313 17.9659375 70.08890625 17.046875 70.0703125 C16.37140625 70.04710937 15.6959375 70.02390625 15 70 C15 72.64 15 75.28 15 78 C9.72 78 4.44 78 -1 78 C-1 75.36 -1 72.72 -1 70 C-1.74765625 70.04640625 -2.4953125 70.0928125 -3.265625 70.140625 C-4.25046875 70.17671875 -5.2353125 70.2128125 -6.25 70.25 C-7.22453125 70.29640625 -8.1990625 70.3428125 -9.203125 70.390625 C-12 70 -12 70 -16 66 C-16 62.04 -16 58.08 -16 54 C-5.77 54 4.46 54 15 54 C15 51.69 15 49.38 15 47 C13.84999512 47.0314209 13.84999512 47.0314209 12.67675781 47.06347656 C9.2013054 47.14665158 5.72606237 47.19866575 2.25 47.25 C1.0434375 47.28351563 -0.163125 47.31703125 -1.40625 47.3515625 C-2.56640625 47.36445313 -3.7265625 47.37734375 -4.921875 47.390625 C-6.52434082 47.4220459 -6.52434082 47.4220459 -8.15917969 47.45410156 C-11.68638554 46.89028213 -12.79946143 45.74716104 -15 43 C-17.11011598 38.77976804 -16.30882434 33.32140168 -16.35009766 28.67871094 C-16.3666579 27.3129777 -16.39395011 25.94733118 -16.43212891 24.58203125 C-16.48696324 22.60990239 -16.50564662 20.63687332 -16.5234375 18.6640625 C-16.54325684 17.48279785 -16.56307617 16.3015332 -16.58349609 15.08447266 C-16 12 -16 12 -13.64819336 9.60791016 C-10.53324607 7.71659985 -8.79464123 7.57616187 -5.1875 7.75 C-3.72376953 7.80414063 -3.72376953 7.80414063 -2.23046875 7.859375 C-1.49441406 7.90578125 -0.75835937 7.9521875 0 8 C0 5.36 0 2.72 0 0 Z " fill="#060301" transform="translate(149,133)"/>
<path d="M0 0 C0.33 0 0.66 0 1 0 C1.70838976 14.34188165 2.23132237 28.68097541 2.55436516 43.03689766 C2.70759036 49.70801616 2.91909111 56.36590734 3.26318359 63.03076172 C5.65359971 110.53250427 5.65359971 110.53250427 -5.77636719 124.12792969 C-11.2774171 130.20007243 -17.55455493 135.56912746 -24.36108017 140.13552475 C-27.63928344 142.41082422 -28.90921319 143.70496868 -30.09963989 147.57351685 C-30.31857061 151.37592368 -30.31857061 151.37592368 -27 155 C-23.04 155.33 -19.08 155.66 -15 156 C-15 171.51 -15 187.02 -15 203 C-22.59 203 -30.18 203 -38 203 C-38 184.85 -38 166.7 -38 148 C-42.95 148 -47.9 148 -53 148 C-49.40181858 143.56286437 -45.55481496 139.53676112 -41.41796875 135.6015625 C-40.39365676 134.61742001 -39.36957208 133.6330409 -38.34570312 132.6484375 C-36.76409573 131.12855977 -35.17779893 129.6159662 -33.57250977 128.12109375 C-26.17355052 121.64511843 -26.17355052 121.64511843 -22.80078125 112.7734375 C-22.86652344 111.52820313 -22.93226563 110.28296875 -23 109 C-21.1128125 109.0928125 -21.1128125 109.0928125 -19.1875 109.1875 C-11.99257195 108.478302 -7.42999108 102.19732882 -3 97 C-2.67 96.34 -2.34 95.68 -2 95 C-1.34 95 -0.68 95 0 95 C0 63.65 0 32.3 0 0 Z " fill="#2C66B0" transform="translate(343,39)"/>
<path d="M0 0 C2.61353844 1.10373346 4.07866118 2.53036242 6.07128906 4.55143738 C6.84534088 5.32894348 7.6193927 6.10644958 8.41690063 6.90751648 C9.24305878 7.75229553 10.06921692 8.59707458 10.92041016 9.467453 C11.77565277 10.32931213 12.63089539 11.19117126 13.51205444 12.07914734 C16.24648463 14.83701434 18.97056853 17.6048279 21.69384766 20.373703 C24.42596387 23.14083405 27.16018381 25.90583967 29.89706421 28.66825867 C31.60077661 30.38900156 33.3013998 32.11280943 34.99868774 33.83988953 C35.76643524 34.61739563 36.53418274 35.39490173 37.32519531 36.19596863 C38.00152008 36.88356262 38.67784485 37.57115662 39.37466431 38.27958679 C40.99348683 39.95569974 40.99348683 39.95569974 43.06884766 40.873703 C43.06884766 41.533703 43.06884766 42.193703 43.06884766 42.873703 C14.68884766 42.873703 -13.69115234 42.873703 -42.93115234 42.873703 C-40.95481759 38.92103349 -39.0900965 36.87855233 -35.93115234 33.873703 C-35.37427734 33.275578 -34.81740234 32.677453 -34.24365234 32.061203 C-32.93115234 30.873703 -32.93115234 30.873703 -30.93115234 30.873703 C-30.72409668 30.34430115 -30.51704102 29.81489929 -30.30371094 29.26945496 C-28.36421173 25.88412844 -25.69649091 23.29370026 -22.97021484 20.54167175 C-22.08974991 19.64766411 -22.08974991 19.64766411 -21.1914978 18.7355957 C-19.9518539 17.48147561 -18.70940626 16.23012149 -17.46435547 14.98136902 C-15.55753688 13.06259622 -13.6701644 11.1259606 -11.78271484 9.18815613 C-10.57553364 7.97151708 -9.36723761 6.75598296 -8.15771484 5.54167175 C-7.59404205 4.95846664 -7.03036926 4.37526154 -6.44961548 3.77438354 C-2.46846645 -0.16143724 -2.46846645 -0.16143724 0 0 Z " fill="#B08202" transform="translate(382.93115234375,137.1262969970703)"/>
<path d="M0 0 C25.74 0 51.48 0 78 0 C78 15.51 78 31.02 78 47 C72.72 47 67.44 47 62 47 C61.97421875 44.59203125 61.9484375 42.1840625 61.921875 39.703125 C61.88344233 37.36641844 61.83828635 35.02993165 61.79248047 32.69335938 C61.76428653 31.07172163 61.74306406 29.44994687 61.72900391 27.828125 C61.70755128 25.49407895 61.66089425 23.16167739 61.609375 20.828125 C61.60814636 20.10506165 61.60691772 19.38199829 61.60565186 18.63702393 C61.51286806 15.43546168 61.17710445 13.28681113 59.48339844 10.54394531 C55.96117253 8.35415406 52.67932912 8.42677985 48.65625 8.46875 C47.85014282 8.4649231 47.04403564 8.46109619 46.21350098 8.45715332 C44.51227568 8.4544361 42.81100847 8.4617841 41.10986328 8.47851562 C38.50849104 8.4999301 35.90988028 8.47870981 33.30859375 8.453125 C31.65363975 8.45576831 29.99868746 8.46089337 28.34375 8.46875 C27.56761353 8.46065308 26.79147705 8.45255615 25.99182129 8.44421387 C22.65088517 8.50211282 20.37827892 8.76482148 17.51660156 10.54394531 C15.43551973 13.91414544 15.39716399 16.97987394 15.390625 20.828125 C15.37408875 21.57713074 15.35755249 22.32613647 15.34051514 23.09783936 C15.2920649 25.48197654 15.27067228 27.86547611 15.25 30.25 C15.2218376 31.86982369 15.19190978 33.48961772 15.16015625 35.109375 C15.08299145 39.07320898 15.04245144 43.03503515 15 47 C10.05 47 5.1 47 0 47 C0 31.49 0 15.98 0 0 Z " fill="#C8E0F7" transform="translate(344,195)"/>
<path d="M0 0 C5.28 0 10.56 0 16 0 C16 35.97 16 71.94 16 109 C10.72 109 5.44 109 0 109 C0 73.03 0 37.06 0 0 Z " fill="#295B9B" transform="translate(250,133)"/>
<path d="M0 0 C5.28 0 10.56 0 16 0 C16 4.95 16 9.9 16 15 C21.28 15 26.56 15 32 15 C32 20.61 32 26.22 32 32 C26.72 32 21.44 32 16 32 C16 37.28 16 42.56 16 48 C10.72 48 5.44 48 0 48 C0 42.72 0 37.44 0 32 C-5.28 32 -10.56 32 -16 32 C-16 26.39 -16 20.78 -16 15 C-10.72 15 -5.44 15 0 15 C0 10.05 0 5.1 0 0 Z M1 16 C1 20.95 1 25.9 1 31 C5.62 31 10.24 31 15 31 C15 26.05 15 21.1 15 16 C10.38 16 5.76 16 1 16 Z " fill="#484848" transform="translate(31,70)"/>
<path d="M0 0 C5.61 0 11.22 0 17 0 C17 5.28 17 10.56 17 16 C21.95 16 26.9 16 32 16 C32 21.28 32 26.56 32 32 C27.05 32 22.1 32 17 32 C17 37.28 17 42.56 17 48 C11.39 48 5.78 48 0 48 C0 42.72 0 37.44 0 32 C-4.95 32 -9.9 32 -15 32 C-15 26.72 -15 21.44 -15 16 C-10.05 16 -5.1 16 0 16 C0 10.72 0 5.44 0 0 Z M1 17 C1 21.62 1 26.24 1 31 C5.95 31 10.9 31 16 31 C16 26.38 16 21.76 16 17 C11.05 17 6.1 17 1 17 Z " fill="#424242" transform="translate(429,15)"/>
<path d="M0 0 C0.33 0 0.66 0 1 0 C1.70838976 14.34188165 2.23132237 28.68097541 2.55436516 43.03689766 C2.70759036 49.70801616 2.91909111 56.36590734 3.26318359 63.03076172 C5.69975981 111.45353457 5.69975981 111.45353457 -7.72400475 126.32448387 C-12.75691871 131.45082561 -18.29393813 136.10896996 -24.24778366 140.13552475 C-28.89572507 143.36192706 -30.01767993 145.63637681 -31 151 C-31.99 150.01 -32.98 149.02 -34 148 C-34.66 148.99 -35.32 149.98 -36 151 C-36.66 150.34 -37.32 149.68 -38 149 C-40.56916657 148.69400937 -43.04758384 148.48912913 -45.625 148.375 C-46.68460937 148.31699219 -46.68460937 148.31699219 -47.765625 148.2578125 C-49.50998524 148.16352276 -51.25495691 148.08067109 -53 148 C-49.40181858 143.56286437 -45.55481496 139.53676112 -41.41796875 135.6015625 C-40.39365676 134.61742001 -39.36957208 133.6330409 -38.34570312 132.6484375 C-36.76409573 131.12855977 -35.17779893 129.6159662 -33.57250977 128.12109375 C-26.17355052 121.64511843 -26.17355052 121.64511843 -22.80078125 112.7734375 C-22.86652344 111.52820313 -22.93226563 110.28296875 -23 109 C-21.1128125 109.0928125 -21.1128125 109.0928125 -19.1875 109.1875 C-11.99257195 108.478302 -7.42999108 102.19732882 -3 97 C-2.67 96.34 -2.34 95.68 -2 95 C-1.34 95 -0.68 95 0 95 C0 63.65 0 32.3 0 0 Z " fill="#2C67B2" transform="translate(343,39)"/>
<path d="M0 0 C7.62336545 -0.11590535 15.24663944 -0.20472069 22.87068558 -0.25906086 C26.41101476 -0.28514349 29.95074069 -0.32051425 33.49072266 -0.37719727 C37.56158195 -0.44197206 41.63180872 -0.4661911 45.703125 -0.48828125 C46.97303284 -0.51408768 48.24294067 -0.5398941 49.55133057 -0.56648254 C51.32271393 -0.56704903 51.32271393 -0.56704903 53.12988281 -0.56762695 C54.16912903 -0.57873001 55.20837524 -0.58983307 56.27911377 -0.60127258 C59.9754828 0.21556618 60.96140331 1.90437134 63 5 C64.265625 7.16796875 64.265625 7.16796875 65.25 9.1875 C65.58515625 9.86167969 65.9203125 10.53585938 66.265625 11.23046875 C67 13 67 13 67 15 C65.33710938 15.03867188 65.33710938 15.03867188 63.640625 15.078125 C62.17704453 15.13441656 60.71350438 15.19176367 59.25 15.25 C58.15558594 15.27126953 58.15558594 15.27126953 57.0390625 15.29296875 C53.74658615 15.44262677 51.3666738 15.77721086 48.53125 17.5 C46.28594724 21.16580042 46.32710561 24.52321073 46.25 28.75 C46.20552734 29.93916016 46.20552734 29.93916016 46.16015625 31.15234375 C46.08972213 33.10102094 46.04256518 35.05051495 46 37 C45.67 36.34 45.34 35.68 45 35 C44.34 35 43.68 35 43 35 C41.44921875 33.20703125 41.44921875 33.20703125 39.6875 30.8125 C29.48178356 16.98318087 15.15493107 8.43068654 0 1 C0 0.67 0 0.34 0 0 Z " fill="#B38401" transform="translate(149,102)"/>
<path d="M0 0 C-5.61 13.53 -11.22 27.06 -17 41 C-23.93 41 -30.86 41 -38 41 C-35.29768544 33.79382785 -32.60075388 26.801424 -29 20 C-29.9075 19.87625 -30.815 19.7525 -31.75 19.625 C-35 19 -35 19 -37.0625 17.9375 C-39.47952046 16.76797397 -41.34911857 16.85272881 -44 17 C-43.505 15.515 -43.505 15.515 -43 14 C-41.783125 14.2475 -40.56625 14.495 -39.3125 14.75 C-35.84593034 15.20242708 -35.29239127 15.19935769 -32.25 13.125 C-31.5075 12.42375 -30.765 11.7225 -30 11 C-29.278125 10.835 -28.55625 10.67 -27.8125 10.5 C-25.7749381 10.16109949 -25.7749381 10.16109949 -24.75 7.9375 C-24.5025 7.298125 -24.255 6.65875 -24 6 C-23.34 6 -22.68 6 -22 6 C-21.67 5.34 -21.34 4.68 -21 4 C-19.88625 4.103125 -18.7725 4.20625 -17.625 4.3125 C-12.73738739 4.36477393 -9.3534263 2.40253423 -5.19921875 -0.00390625 C-3 -1 -3 -1 0 0 Z " fill="#AE8003" transform="translate(223,45)"/>
<path d="M0 0 C4.95 0 9.9 0 15 0 C15.02324061 4.83404776 15.04306484 9.66789352 15.05493164 14.50195312 C15.05989045 16.13867864 15.06665953 17.7753999 15.07543945 19.41210938 C15.22637587 48.32087239 15.22637587 48.32087239 13 55 C13.08316522 57.25793582 13.2550971 59.4954305 13.453125 61.74609375 C13 64 13 64 8 68 C8 61.07 8 54.14 8 47 C5.36 47 2.72 47 0 47 C0 31.49 0 15.98 0 0 Z " fill="#2C66B1" transform="translate(250,133)"/>
<path d="M0 0 C15.51 0 31.02 0 47 0 C47 56.76 47 113.52 47 172 C31.49 172 15.98 172 0 172 C0 115.24 0 58.48 0 0 Z M2 2 C2 57.44 2 112.88 2 170 C16.52 170 31.04 170 46 170 C46 114.56 46 59.12 46 2 C44.68 2.33 43.36 2.66 42 3 C41.505 2.505 41.505 2.505 41 2 C28.13 2 15.26 2 2 2 Z " fill="#315D93" transform="translate(31,297)"/>
<path d="M0 0 C20.46 0 40.92 0 62 0 C61.67 0.99 61.34 1.98 61 3 C31.795 2.505 31.795 2.505 2 2 C2 68 2 134 2 202 C8.93 202 15.86 202 23 202 C23 184.51 23 167.02 23 149 C18.38 149 13.76 149 9 149 C9 148.67 9 148.34 9 148 C13.95 148 18.9 148 24 148 C24 166.15 24 184.3 24 203 C16.08 203 8.16 203 0 203 C0 136.01 0 69.02 0 0 Z " fill="#5A8FD1" transform="translate(281,39)"/>
<path d="M0 0 C1.23783234 -0.00307663 2.47566467 -0.00615326 3.75100708 -0.00932312 C5.10207302 -0.00242645 6.45313711 0.00484044 7.80419922 0.01245117 C9.18757077 0.01364327 10.57094314 0.01409607 11.95431519 0.01383972 C14.85110553 0.01540316 17.74777204 0.0236837 20.64453125 0.03710938 C24.36498903 0.05413081 28.08531114 0.05792274 31.8058033 0.05716419 C34.66072901 0.05743552 37.51562483 0.06291011 40.37054062 0.07016563 C41.74292652 0.07335587 43.11531582 0.07532053 44.48770523 0.07605934 C46.40066998 0.07821734 48.3136222 0.08774638 50.2265625 0.09765625 C51.31671661 0.10146805 52.40687073 0.10527985 53.53005981 0.10920715 C55.98388672 0.24291992 55.98388672 0.24291992 56.98388672 1.24291992 C57.08400173 2.75645696 57.1146412 4.27464698 57.11759949 5.79148865 C57.12399696 7.2658992 57.12399696 7.2658992 57.13052368 8.77009583 C57.1298439 10.40104439 57.1298439 10.40104439 57.12915039 12.06494141 C57.132509 13.2030426 57.13586761 14.3411438 57.139328 15.51373291 C57.14887109 19.29717076 57.15078277 23.08056452 57.15185547 26.86401367 C57.15506564 29.48096231 57.15842952 32.09791076 57.16194153 34.71485901 C57.16834415 40.20867197 57.16982323 45.70247287 57.16918945 51.19628906 C57.1685885 57.55321022 57.1791421 63.91004657 57.19493312 70.26694626 C57.20956404 76.37357529 57.21317809 82.4801635 57.21257973 88.58680916 C57.21376399 91.18924366 57.21821054 93.79167872 57.22591209 96.3941021 C57.23565545 100.02664196 57.23285639 103.65896086 57.22680664 107.29150391 C57.23242615 108.37677872 57.23804565 109.46205353 57.24383545 110.58021545 C57.23964096 111.56597565 57.23544647 112.55173584 57.23112488 113.56736755 C57.23166965 114.42702338 57.23221441 115.28667921 57.23277569 116.17238522 C56.98388672 118.24291992 56.98388672 118.24291992 54.98388672 120.24291992 C53.99388672 119.91291992 53.00388672 119.58291992 51.98388672 119.24291992 C52.47066297 118.84462321 52.95743921 118.4463265 53.45896626 118.0359602 C55.41369889 115.73753584 55.3661676 114.54425594 55.38261414 111.55427551 C55.40142136 110.10926918 55.40142136 110.10926918 55.42060852 108.6350708 C55.41845589 107.05227325 55.41845589 107.05227325 55.41625977 105.4375 C55.42645142 104.32515488 55.43664307 103.21280975 55.44714355 102.0667572 C55.47739119 98.38193807 55.48655767 94.69737839 55.49560547 91.01245117 C55.51244338 88.46082182 55.53059241 85.9092008 55.55000305 83.35758972 C55.59273727 77.32281556 55.62222519 71.2881166 55.64532644 65.25324696 C55.67501584 57.70870127 55.72491104 50.16430686 55.77490234 42.61987305 C55.86399527 29.16093441 55.92248739 15.70207666 55.98388672 2.24291992 C35.19388672 2.24291992 14.40388672 2.24291992 -7.01611328 2.24291992 C-7.01611328 69.23291992 -7.01611328 136.22291992 -7.01611328 205.24291992 C-7.34611328 205.24291992 -7.67611328 205.24291992 -8.01611328 205.24291992 C-8.21654907 178.80965807 -8.39988398 152.3763259 -8.56270123 125.94280434 C-8.63869665 113.67004962 -8.72034821 101.39738063 -8.81518555 89.12475586 C-8.89780412 78.43148779 -8.96994253 67.73820999 -9.02934581 57.04478681 C-9.06118727 51.37948445 -9.0983782 45.71432831 -9.14810753 40.04915237 C-9.19470148 34.72232995 -9.22733511 29.39560856 -9.24903488 24.06862831 C-9.25952181 22.1085633 -9.27520884 20.14851851 -9.29635429 18.18853951 C-9.32435962 15.522247 -9.33403293 12.85651397 -9.33891296 10.19009399 C-9.35154244 9.40605717 -9.36417191 8.62202035 -9.37718409 7.81422484 C-9.3696394 5.65934181 -9.3696394 5.65934181 -9.01611328 2.24291992 C-5.51703164 -0.08980117 -4.13431483 -0.00539638 0 0 Z " fill="#00031A" transform="translate(288.01611328125,36.757080078125)"/>
<path d="M0 0 C0.33 0 0.66 0 1 0 C1.35196973 14.60375155 1.6156637 29.20693489 1.77718258 43.81408024 C1.85420934 50.59828864 1.95900225 57.37984754 2.1315918 64.16235352 C2.29831482 70.71749599 2.38445257 77.27093025 2.42315865 83.82809258 C2.4507121 86.31973828 2.50452305 88.81124671 2.58595085 91.30171394 C3.26170741 112.84160337 3.26170741 112.84160337 -4.46914577 121.15211391 C-7.50490028 124.00997129 -10.62931699 126.5442815 -14 129 C-14.33 128.34 -14.66 127.68 -15 127 C-17.32156597 126.59270772 -19.6568787 126.25561323 -22 126 C-22 125.67 -22 125.34 -22 125 C-19.69 125 -17.38 125 -15 125 C-15 120.05 -15 115.1 -15 110 C-17.64 110 -20.28 110 -23 110 C-23 109.67 -23 109.34 -23 109 C-21.1128125 109.0928125 -21.1128125 109.0928125 -19.1875 109.1875 C-11.99257195 108.478302 -7.42999108 102.19732882 -3 97 C-2.67 96.34 -2.34 95.68 -2 95 C-1.34 95 -0.68 95 0 95 C0 63.65 0 32.3 0 0 Z " fill="#3369AD" transform="translate(343,39)"/>
<path d="M0 0 C5.28 0 10.56 0 16 0 C16 7.92 16 15.84 16 24 C10.72 24 5.44 24 0 24 C0 16.08 0 8.16 0 0 Z " fill="#02060F" transform="translate(47,320)"/>
<path d="M0 0 C5.28 0 10.56 0 16 0 C16 7.59 16 15.18 16 23 C10.72 23 5.44 23 0 23 C0 15.41 0 7.82 0 0 Z " fill="#5B9DF1" transform="translate(375,219)"/>
<path d="M0 0 C12.87 0 25.74 0 39 0 C39 0.33 39 0.66 39 1 C27.12 1.33 15.24 1.66 3 2 C2.67 36.98 2.34 71.96 2 108 C14.21 108 26.42 108 39 108 C39 108.33 39 108.66 39 109 C26.13 109 13.26 109 0 109 C0 73.03 0 37.06 0 0 Z " fill="#699EE5" transform="translate(211,133)"/>
<path d="M0 0 C5.61 0 11.22 0 17 0 C17 5.61 17 11.22 17 17 C11.39 17 5.78 17 0 17 C0 11.39 0 5.78 0 0 Z " fill="#272727" transform="translate(15,148)"/>
<path d="M0 0 C5.61 0 11.22 0 17 0 C17 5.61 17 11.22 17 17 C11.39 17 5.78 17 0 17 C0 11.39 0 5.78 0 0 Z " fill="#272727" transform="translate(46,15)"/>
<path d="M0 0 C0.33 9.9 0.66 19.8 1 30 C-3.95 30 -8.9 30 -14 30 C-14 25.05 -14 20.1 -14 15 C-10.7 15 -7.4 15 -4 15 C-4.33 14.01 -4.66 13.02 -5 12 C-5.06802967 10.27204648 -5.08495645 8.54164635 -5.0625 6.8125 C-5.05347656 5.91144531 -5.04445313 5.01039063 -5.03515625 4.08203125 C-5.02355469 3.39496094 -5.01195312 2.70789063 -5 2 C-1.125 0 -1.125 0 0 0 Z " fill="#2D66B0" transform="translate(264,212)"/>
<path d="M0 0 C18.81 0 37.62 0 57 0 C57 0.33 57 0.66 57 1 C38.85 1 20.7 1 2 1 C2 36.97 2 72.94 2 110 C1.34 110 0.68 110 0 110 C-0.153836 95.95315155 -0.30180339 81.90625188 -0.4429636 67.8592701 C-0.50867644 61.33730036 -0.57629129 54.81536171 -0.64819336 48.29345703 C-0.71746214 42.00414814 -0.78181261 35.7148067 -0.84269524 29.42541122 C-0.86684479 27.02112869 -0.89279242 24.61686355 -0.92053413 22.21261978 C-0.95896938 18.85547864 -0.99111703 15.49833356 -1.02172852 12.14111328 C-1.03467453 11.13842407 -1.04762054 10.13573486 -1.06095886 9.10266113 C-1.06799835 8.19118317 -1.07503784 7.2797052 -1.08229065 6.34060669 C-1.09473485 5.14872836 -1.09473485 5.14872836 -1.10743046 3.93277168 C-1 2 -1 2 0 0 Z " fill="#000C27" transform="translate(209,132)"/>
<path d="M0 0 C5.28 0 10.56 0 16 0 C16 5.61 16 11.22 16 17 C10.72 17 5.44 17 0 17 C0 11.39 0 5.78 0 0 Z " fill="#1A1A1A" transform="translate(414,93)"/>
<path d="M0 0 C5.61 0 11.22 0 17 0 C17 5.28 17 10.56 17 16 C11.39 16 5.78 16 0 16 C0 10.72 0 5.44 0 0 Z " fill="#1A1A1A" transform="translate(468,70)"/>
<path d="M0 0 C6.93 0.495 6.93 0.495 14 1 C14.02683697 4.14588944 14.04675902 7.29155271 14.0625 10.4375 C14.07087891 11.33533203 14.07925781 12.23316406 14.08789062 13.15820312 C14.09111328 14.01220703 14.09433594 14.86621094 14.09765625 15.74609375 C14.10289307 16.53685303 14.10812988 17.3276123 14.11352539 18.14233398 C14 20 14 20 13 21 C12.76636119 22.84891946 12.58696365 24.70488031 12.4375 26.5625 C12.35371094 27.57441406 12.26992188 28.58632812 12.18359375 29.62890625 C12.12300781 30.41136719 12.06242187 31.19382813 12 32 C10.02 32.495 10.02 32.495 8 33 C8 26.73 8 20.46 8 14 C5.36 14 2.72 14 0 14 C0 9.38 0 4.76 0 0 Z " fill="#2C66B2" transform="translate(250,134)"/>
<path d="M0 0 C10.56 0 21.12 0 32 0 C31 5 31 5 30 6 C30 6.66 30 7.32 30 8 C30.66 8 31.32 8 32 8 C32 9.65 32 11.3 32 13 C31.67 12.34 31.34 11.68 31 11 C27.24242194 9.10245469 24.00006941 8.70936166 19.82421875 8.5859375 C18.66728516 8.54726562 17.51035156 8.50859375 16.31835938 8.46875 C14.52108398 8.42234375 14.52108398 8.42234375 12.6875 8.375 C11.46998047 8.33632812 10.25246094 8.29765625 8.99804688 8.2578125 C5.99884772 8.16371998 2.99965177 8.07807791 0 8 C0 5.36 0 2.72 0 0 Z M31 5 C31.99 5.495 31.99 5.495 33 6 C32.67 6.66 32.34 7.32 32 8 C31.67 7.01 31.34 6.02 31 5 Z " fill="#FBBD0A" transform="translate(148,156)"/>
<path d="M0 0 C5.28 0 10.56 0 16 0 C16 5.28 16 10.56 16 16 C10.72 16 5.44 16 0 16 C0 10.72 0 5.44 0 0 Z " fill="#0B0B0B" transform="translate(31,70)"/>
<path d="M0 0 C0.33 0.66 0.66 1.32 1 2 C0.19555664 3.87939453 0.19555664 3.87939453 -1.08984375 6.1328125 C-1.54423828 6.93847656 -1.99863281 7.74414062 -2.46679688 8.57421875 C-3.19479492 9.83685547 -3.19479492 9.83685547 -3.9375 11.125 C-4.41896484 11.97449219 -4.90042969 12.82398437 -5.39648438 13.69921875 C-6.59051385 15.80354793 -7.79435471 17.90230433 -9 20 C-13.62 20 -18.24 20 -23 20 C-25 16 -25 16 -25 13 C-25.66 13 -26.32 13 -27 13 C-26.67 12.34 -26.34 11.68 -26 11 C-24.00323586 10.64780108 -22.0024885 10.31804229 -20 10 C-17.93589817 9.24631396 -15.89298842 8.43214463 -13.875 7.5625 C-12.35519531 6.91474609 -12.35519531 6.91474609 -10.8046875 6.25390625 C-6.10841292 4.51822579 -6.10841292 4.51822579 -3 1 C-2.01 0.67 -1.02 0.34 0 0 Z " fill="#B38404" transform="translate(176,66)"/>
<path d="M0 0 C4.95 0 9.9 0 15 0 C15 5.28 15 10.56 15 16 C10.05 16 5.1 16 0 16 C0 10.72 0 5.44 0 0 Z " fill="#070707" transform="translate(446,31)"/>
<path d="M0 0 C4.95 0 9.9 0 15 0 C15 4.95 15 9.9 15 15 C10.05 15 5.1 15 0 15 C0 10.05 0 5.1 0 0 Z " fill="#000000" transform="translate(47,86)"/>
<path d="M0 0 C4.95 0 9.9 0 15 0 C15 4.95 15 9.9 15 15 C10.05 15 5.1 15 0 15 C0 10.05 0 5.1 0 0 Z " fill="#000000" transform="translate(16,86)"/>
<path d="M0 0 C4.95 0 9.9 0 15 0 C15 4.95 15 9.9 15 15 C10.05 15 5.1 15 0 15 C0 10.05 0 5.1 0 0 Z " fill="#000000" transform="translate(430,47)"/>
<path d="M0 0 C4.95 0 9.9 0 15 0 C15 4.95 15 9.9 15 15 C10.05 15 5.1 15 0 15 C0 10.05 0 5.1 0 0 Z " fill="#000000" transform="translate(430,16)"/>
<path d="M0 0 C0.47050781 0.40992188 0.94101562 0.81984375 1.42578125 1.2421875 C2.35970703 2.05042969 2.35970703 2.05042969 3.3125 2.875 C4.23482422 3.67550781 4.23482422 3.67550781 5.17578125 4.4921875 C7.13498212 6.1640447 7.13498212 6.1640447 10 8 C10 8.66 10 9.32 10 10 C-18.38 10 -46.76 10 -76 10 C-74 6 -74 6 -71 5 C-71 5.99 -71 6.98 -71 8 C-46.58 7.67 -22.16 7.34 3 7 C2.01 5.35 1.02 3.7 0 2 C0 1.34 0 0.68 0 0 Z " fill="#926C0F" transform="translate(416,170)"/>
<path d="M0 0 C0.99 0.33 1.98 0.66 3 1 C2.67 1.33 2.34 1.66 2 2 C1.78122619 6.06073604 1.8142103 10.12478122 1.81469727 14.19091797 C1.81252374 16.22775569 1.79440943 18.26404041 1.77539062 20.30078125 C1.77345703 21.58855469 1.77152344 22.87632812 1.76953125 24.203125 C1.76542236 25.38551758 1.76131348 26.56791016 1.75708008 27.78613281 C1.86814575 31.39622249 1.86814575 31.39622249 4 36 C17.86 36.495 17.86 36.495 32 37 C32 39.31 32 41.62 32 44 C21.77 44 11.54 44 1 44 C0.86504511 55.22490885 0.86504511 55.22490885 5 60 C3.35 59.67 1.7 59.34 0 59 C0 53.72 0 48.44 0 43 C10.23 43 20.46 43 31 43 C31 41.35 31 39.7 31 38 C26.7289011 38.1386402 22.45820108 38.28713901 18.1875 38.4375 C16.97255859 38.47681641 15.75761719 38.51613281 14.50585938 38.55664062 C13.34248047 38.59853516 12.17910156 38.64042969 10.98046875 38.68359375 C9.37014771 38.73858032 9.37014771 38.73858032 7.72729492 38.79467773 C4.90688447 38.89541847 4.90688447 38.89541847 2 40 C2 38.02 2 36.04 2 34 C1.01 34 0.02 34 -1 34 C-1.02465288 29.31860746 -1.04283739 24.63725241 -1.05493164 19.95581055 C-1.05997157 18.36205386 -1.0668035 16.76830181 -1.07543945 15.17456055 C-1.08751999 12.88849747 -1.09323155 10.60249533 -1.09765625 8.31640625 C-1.10281754 7.59973282 -1.10797882 6.88305939 -1.11329651 6.14466858 C-1.11349263 4.42936328 -1.06192007 2.71418734 -1 1 C-0.67 0.67 -0.34 0.34 0 0 Z " fill="#E4B227" transform="translate(132,143)"/>
<path d="M0 0 C0.33 0 0.66 0 1 0 C1 56.76 1 113.52 1 172 C0.67 172 0.34 172 0 172 C-0.13049416 150.53848429 -0.26088476 129.07696795 -0.39115143 107.61545086 C-0.45163622 97.65094155 -0.51215515 87.68643245 -0.57275391 77.72192383 C-0.62555957 69.03885066 -0.67830175 60.35577711 -0.73096704 51.67270309 C-0.75886591 47.07330759 -0.786797 42.47391228 -0.81480408 37.87451744 C-0.84114731 33.54819917 -0.86740584 29.2218804 -0.89359856 24.89556122 C-0.90324196 23.30522709 -0.91291668 21.71489314 -0.92262459 20.1245594 C-0.9358455 17.95797398 -0.94895507 15.79138791 -0.96203613 13.62480164 C-0.96941048 12.41080028 -0.97678482 11.19679892 -0.98438263 9.94600964 C-1.00316561 6.40284939 -0.9420277 3.41485041 0 0 Z " fill="#000318" transform="translate(30,297)"/>
<path d="M0 0 C2.64 0 5.28 0 8 0 C8 5.28 8 10.56 8 16 C5.36 16 2.72 16 0 16 C0 10.72 0 5.44 0 0 Z " fill="#000103" transform="translate(250,211)"/>
<path d="M0 0 C2.64 0 5.28 0 8 0 C8 5.28 8 10.56 8 16 C5.36 16 2.72 16 0 16 C0 10.72 0 5.44 0 0 Z " fill="#010102" transform="translate(250,148)"/>
<path d="M0 0 C2.64 0 5.28 0 8 0 C8 5.28 8 10.56 8 16 C5.36 16 2.72 16 0 16 C0 10.72 0 5.44 0 0 Z " fill="#061735" transform="translate(297,148)"/>
<path d="M0 0 C2.64 0 5.28 0 8 0 C8 5.28 8 10.56 8 16 C5.36 16 2.72 16 0 16 C0 10.72 0 5.44 0 0 Z " fill="#03142F" transform="translate(297,117)"/>
<path d="M0 0 C2.64 0 5.28 0 8 0 C8 5.28 8 10.56 8 16 C5.36 16 2.72 16 0 16 C0 10.72 0 5.44 0 0 Z " fill="#040C1A" transform="translate(320,117)"/>
<path d="M0 0 C2.64 0 5.28 0 8 0 C8 5.28 8 10.56 8 16 C5.36 16 2.72 16 0 16 C0 10.72 0 5.44 0 0 Z " fill="#061838" transform="translate(297,86)"/>
<path d="M0 0 C2.64 0 5.28 0 8 0 C8 5.28 8 10.56 8 16 C5.36 16 2.72 16 0 16 C0 10.72 0 5.44 0 0 Z " fill="#050C1A" transform="translate(320,86)"/>
<path d="M0 0 C1.5078125 1.75 1.5078125 1.75 3.125 4 C3.66382813 4.7425 4.20265625 5.485 4.7578125 6.25 C5.16773438 6.8275 5.57765625 7.405 6 8 C5.67 8.66 5.34 9.32 5 10 C4.34 9.34 3.68 8.68 3 8 C2.649375 8.78375 2.29875 9.5675 1.9375 10.375 C-0.64878716 13.87900196 -2.78802943 14.2478624 -7 15 C-7.99 14.67 -8.98 14.34 -10 14 C-10 11 -10 11 -9 10 C-9.66 9.67 -10.32 9.34 -11 9 C-9.54782324 7.49403892 -8.08807139 5.99537896 -6.625 4.5 C-5.40683594 3.24703125 -5.40683594 3.24703125 -4.1640625 1.96875 C-2 0 -2 0 0 0 Z " fill="#F6BA0A" transform="translate(187,33)"/>
<path d="M0 0 C2.64 0 5.28 0 8 0 C8 4.95 8 9.9 8 15 C5.36 15 2.72 15 0 15 C0 10.05 0 5.1 0 0 Z " fill="#00050E" transform="translate(250,180)"/>
<path d="M0 0 C2.64 0 5.28 0 8 0 C8 4.95 8 9.9 8 15 C5.36 15 2.72 15 0 15 C0 10.05 0 5.1 0 0 Z " fill="#000103" transform="translate(320,149)"/>
<path d="M0 0 C2.64 0 5.28 0 8 0 C8 4.95 8 9.9 8 15 C5.36 15 2.72 15 0 15 C0 10.05 0 5.1 0 0 Z " fill="#030714" transform="translate(320,55)"/>
<path d="M0 0 C2.64 0 5.28 0 8 0 C8 4.95 8 9.9 8 15 C5.36 15 2.72 15 0 15 C0 10.05 0 5.1 0 0 Z " fill="#02091A" transform="translate(297,55)"/>
<path d="M0 0 C1.6456873 4.06213954 0.26021547 7.61024789 -0.875 11.625 C-2.36097873 17.15547983 -3.48374097 22.44020486 -3.82421875 28.1796875 C-4 30 -4 30 -5 32 C-5.11127663 34.66633777 -5.16411826 37.30569405 -5.16796875 39.97265625 C-5.17129715 40.76973495 -5.17462555 41.56681366 -5.17805481 42.38804626 C-5.18312471 44.08022484 -5.18546312 45.77241344 -5.18530273 47.46459961 C-5.18747083 50.02800558 -5.20557414 52.59096815 -5.22460938 55.15429688 C-5.22754714 56.80208187 -5.22952937 58.4498689 -5.23046875 60.09765625 C-5.23765427 60.85426041 -5.24483978 61.61086456 -5.25224304 62.39039612 C-5.22950996 67.81117519 -4.3594709 72.75781721 -3 78 C-1.68 78.33 -0.36 78.66 1 79 C0.67 80.65 0.34 82.3 0 84 C-6.11177674 77.46672141 -7.46484847 69.74027301 -7.43359375 61.07421875 C-7.44042175 60.25243637 -7.44724976 59.43065399 -7.45428467 58.58396912 C-7.46777064 55.95142337 -7.45534924 53.32000781 -7.4375 50.6875 C-7.43545563 49.79182312 -7.43341125 48.89614624 -7.43130493 47.97332764 C-7.38256973 34.92019697 -6.69850055 22.59346064 -3 10 C-2.69191406 8.87851563 -2.38382812 7.75703125 -2.06640625 6.6015625 C-1.43174959 4.38481913 -0.72915981 2.18747942 0 0 Z " fill="#DFAF24" transform="translate(93,146)"/>
<path d="M0 0 C7.62336545 -0.11590535 15.24663944 -0.20472069 22.87068558 -0.25906086 C26.41101476 -0.28514349 29.95074069 -0.32051425 33.49072266 -0.37719727 C37.56158195 -0.44197206 41.63180872 -0.4661911 45.703125 -0.48828125 C46.97303284 -0.51408768 48.24294067 -0.5398941 49.55133057 -0.56648254 C51.32271393 -0.56704903 51.32271393 -0.56704903 53.12988281 -0.56762695 C54.16912903 -0.57873001 55.20837524 -0.58983307 56.27911377 -0.60127258 C59.9754828 0.21556618 60.96140331 1.90437134 63 5 C64.265625 7.16796875 64.265625 7.16796875 65.25 9.1875 C65.58515625 9.86167969 65.9203125 10.53585938 66.265625 11.23046875 C67 13 67 13 67 15 C61.72 15 56.44 15 51 15 C53.49505962 12.50494038 54.67328888 12.64051624 58.125 12.375 C59.03507812 12.30023438 59.94515625 12.22546875 60.8828125 12.1484375 C61.58148438 12.09945312 62.28015625 12.05046875 63 12 C62.54857119 10.70590408 62.08858979 9.41478941 61.625 8.125 C61.36976563 7.40570313 61.11453125 6.68640625 60.8515625 5.9453125 C60.06122217 3.81842006 60.06122217 3.81842006 58 2 C55.45240753 1.66814656 55.45240753 1.66814656 52.44873047 1.68115234 C51.28767792 1.66128265 50.12662537 1.64141296 48.9303894 1.62094116 C47.04285446 1.60361435 47.04285446 1.60361435 45.1171875 1.5859375 C43.83264679 1.56657135 42.54810608 1.5472052 41.22463989 1.5272522 C37.80852465 1.47586059 34.39236993 1.43627286 30.97607422 1.39910889 C27.49046001 1.35911302 24.00501097 1.30800062 20.51953125 1.2578125 C13.6798081 1.16097025 6.83997904 1.0765922 0 1 C0 0.67 0 0.34 0 0 Z " fill="#AA821B" transform="translate(149,102)"/>
<path d="M0 0 C2.31 0 4.62 0 7 0 C7 4.95 7 9.9 7 15 C4.69 15 2.38 15 0 15 C0 10.05 0 5.1 0 0 Z " fill="#00020D" transform="translate(227,211)"/>
<path d="M0 0 C2.31 0 4.62 0 7 0 C7 4.95 7 9.9 7 15 C4.69 15 2.38 15 0 15 C0 10.05 0 5.1 0 0 Z " fill="#01020C" transform="translate(227,180)"/>
<path d="M0 0 C2.31 0 4.62 0 7 0 C7 4.95 7 9.9 7 15 C4.69 15 2.38 15 0 15 C0 10.05 0 5.1 0 0 Z " fill="#01020B" transform="translate(227,149)"/>
<path d="M0 0 C4.61014446 0.87193879 9.1392332 1.73286548 13.625 3.125 C19.33412293 4.60514298 23.76000011 4.97919349 29 2 C29.99 1.34 30.98 0.68 32 0 C32 1.32 32 2.64 32 4 C27.20214173 6.84593457 23.79072855 7.31115096 18.25 7.125 C13.45833481 6.753014 13.45833481 6.753014 9 8 C8.34 7.01 7.68 6.02 7 5 C6.34 5 5.68 5 5 5 C4.34 5.66 3.68 6.32 3 7 C0 2.25 0 2.25 0 0 Z " fill="#EFB61A" transform="translate(101,46)"/>
<path d="M0 0 C10.56 0 21.12 0 32 0 C32 0.33 32 0.66 32 1 C22.1 1 12.2 1 2 1 C2 2.98 2 4.96 2 7 C2.76666992 6.99476318 3.53333984 6.98952637 4.32324219 6.98413086 C7.79881978 6.96333636 11.27438427 6.95033191 14.75 6.9375 C15.9565625 6.92912109 17.163125 6.92074219 18.40625 6.91210938 C20.14648438 6.90727539 20.14648438 6.90727539 21.921875 6.90234375 C22.99018555 6.89710693 24.05849609 6.89187012 25.15917969 6.88647461 C27.62389235 6.98496992 29.65245467 7.28434536 32 8 C32 9.65 32 11.3 32 13 C31.67 12.34 31.34 11.68 31 11 C27.24242194 9.10245469 24.00006941 8.70936166 19.82421875 8.5859375 C18.66728516 8.54726562 17.51035156 8.50859375 16.31835938 8.46875 C14.52108398 8.42234375 14.52108398 8.42234375 12.6875 8.375 C11.46998047 8.33632812 10.25246094 8.29765625 8.99804688 8.2578125 C5.99884772 8.16371998 2.99965177 8.07807791 0 8 C0 5.36 0 2.72 0 0 Z M31 5 C31.99 5.495 31.99 5.495 33 6 C32.67 6.66 32.34 7.32 32 8 C31.67 7.01 31.34 6.02 31 5 Z " fill="#C99F20" transform="translate(148,156)"/>
<path d="M0 0 C0 3.88091967 -1.65317733 6.39673296 -3.5 9.6875 C-3.83386719 10.29400391 -4.16773438 10.90050781 -4.51171875 11.52539062 C-5.335537 13.02003231 -6.16703451 14.51043671 -7 16 C-11.62 16 -16.24 16 -21 16 C-20.34 15.67 -19.68 15.34 -19 15 C-19 14.01 -19 13.02 -19 12 C-18.443125 12.2475 -17.88625 12.495 -17.3125 12.75 C-14.77128715 13.28865916 -14.77128715 13.28865916 -12.375 11.0625 C-11.199375 10.0415625 -11.199375 10.0415625 -10 9 C-9.34 9 -8.68 9 -8 9 C-8 9.66 -8 10.32 -8 11 C-7.34 10.67 -6.68 10.34 -6 10 C-5.34444881 7.47266765 -5.34444881 7.47266765 -5 5 C-4.34 5 -3.68 5 -3 5 C-2.690625 4.360625 -2.38125 3.72125 -2.0625 3.0625 C-1 1 -1 1 0 0 Z " fill="#A87E09" transform="translate(174,70)"/>
<path d="M0 0 C1.2890625 1.53125 1.2890625 1.53125 2.625 3.5 C3.07101563 4.1496875 3.51703125 4.799375 3.9765625 5.46875 C4.31429687 5.9740625 4.65203125 6.479375 5 7 C4.01 7.495 4.01 7.495 3 8 C3 7.34 3 6.68 3 6 C1.68 6 0.36 6 -1 6 C-1.1546875 6.8971875 -1.1546875 6.8971875 -1.3125 7.8125 C-2.08876455 10.28243264 -3.07088921 11.32251235 -5 13 C-5.66 12.01 -6.32 11.02 -7 10 C-7.78375 10.515625 -8.5675 11.03125 -9.375 11.5625 C-10.24125 12.036875 -11.1075 12.51125 -12 13 C-12.66 12.67 -13.32 12.34 -14 12 C-12.04761147 9.99387601 -10.08862178 7.99507567 -8.125 6 C-7.29162109 5.14148437 -7.29162109 5.14148437 -6.44140625 4.265625 C-2.2265625 0 -2.2265625 0 0 0 Z M-6 6 C-5.67 6.66 -5.34 7.32 -5 8 C-4.67 7.34 -4.34 6.68 -4 6 C-4.66 6 -5.32 6 -6 6 Z " fill="#E5AE14" transform="translate(147,33)"/>
<path d="M0 0 C10.23 0 20.46 0 31 0 C31 0.66 31 1.32 31 2 C21.43 2 11.86 2 2 2 C1.67 5.3 1.34 8.6 1 12 C0.67 12 0.34 12 0 12 C0 8.04 0 4.08 0 0 Z " fill="#422A00" transform="translate(133,187)"/>
<path d="M0 0 C-3.3 7.92 -6.6 15.84 -10 24 C-11.15941038 20.52176885 -10.70820884 18.54104422 -10 15 C-9.34 15 -8.68 15 -8 15 C-8 13.68 -8 12.36 -8 11 C-7.34 11 -6.68 11 -6 11 C-5.67 8.69 -5.34 6.38 -5 4 C-5.639375 4.33 -6.27875 4.66 -6.9375 5 C-11.01236841 6.33056928 -14.75190425 6.16659199 -19 6 C-19 5.67 -19 5.34 -19 5 C-17.2675 4.62875 -17.2675 4.62875 -15.5 4.25 C-11.54866312 3.28848463 -8.27747472 1.72520354 -4.76171875 -0.29296875 C-3 -1 -3 -1 0 0 Z " fill="#937314" transform="translate(223,45)"/>
<path d="M0 0 C4.95 0 9.9 0 15 0 C15.02294161 3.9510554 15.04285915 7.90194133 15.05493164 11.85302734 C15.06244036 13.85906551 15.0751447 15.86508202 15.08789062 17.87109375 C15.09111328 19.12792969 15.09433594 20.38476562 15.09765625 21.6796875 C15.10289307 22.84226074 15.10812988 24.00483398 15.11352539 25.20263672 C15 28 15 28 14 30 C13.34 30 12.68 30 12 30 C11.90234375 23.84765625 11.90234375 23.84765625 12 22 C12.33 21.67 12.66 21.34 13 21 C13.15620555 19.58672053 13.25056173 18.1664541 13.31640625 16.74609375 C13.35830078 15.89208984 13.40019531 15.03808594 13.44335938 14.15820312 C13.48267578 13.26037109 13.52199219 12.36253906 13.5625 11.4375 C13.60568359 10.53580078 13.64886719 9.63410156 13.69335938 8.70507812 C13.79978142 6.47021515 13.90179988 4.23523692 14 2 C13.15695312 2.02320313 12.31390625 2.04640625 11.4453125 2.0703125 C9.80175781 2.09738281 9.80175781 2.09738281 8.125 2.125 C7.03445313 2.14820313 5.94390625 2.17140625 4.8203125 2.1953125 C2 2 2 2 0 0 Z " fill="#3365A4" transform="translate(250,133)"/>
<path d="M0 0 C0.33 0.66 0.66 1.32 1 2 C0.0625 4.125 0.0625 4.125 -1 6 C-1.66 6 -2.32 6 -3 6 C-3.25136719 6.5878125 -3.50273437 7.175625 -3.76171875 7.78125 C-5.15449383 10.27682175 -6.63171498 11.66530515 -8.8125 13.5 C-9.52019531 14.09941406 -10.22789062 14.69882813 -10.95703125 15.31640625 C-13.2858889 17.23559869 -15.62185925 19.14207754 -18 21 C-18.66 20.67 -19.32 20.34 -20 20 C-18.71034824 18.62437146 -17.37310707 17.29233607 -16 16 C-15.34 16 -14.68 16 -14 16 C-13.79632813 15.46890625 -13.59265625 14.9378125 -13.3828125 14.390625 C-11.40494391 10.97125896 -8.69673101 8.48662079 -5.875 5.75 C-5.31167969 5.19570312 -4.74835938 4.64140625 -4.16796875 4.0703125 C-2.78313972 2.70895515 -1.39216796 1.35385141 0 0 Z " fill="#91710B" transform="translate(366,152)"/>
<path d="M0 0 C0.99 0 1.98 0 3 0 C3 4.29 3 8.58 3 13 C1.35 13 -0.3 13 -2 13 C-2.05447047 11.58376784 -2.09300508 10.16691809 -2.125 8.75 C-2.14820313 7.96109375 -2.17140625 7.1721875 -2.1953125 6.359375 C-1.9828378 3.79268059 -1.28654105 2.2083933 0 0 Z " fill="#010104" transform="translate(300,150)"/>
<path d="M0 0 C1.65 0 3.3 0 5 0 C5 4.29 5 8.58 5 13 C3.68 13 2.36 13 1 13 C-0.10228696 8.59085217 -0.07654536 4.51617599 0 0 Z " fill="#010102" transform="translate(298,87)"/>
<path d="M0 0 C2.36206565 1.18103282 3.39714895 2.71245587 4.8125 4.90625 C2.8325 5.56625 0.8525 6.22625 -1.1875 6.90625 C-1.1875 6.24625 -1.1875 5.58625 -1.1875 4.90625 C-2.54875 6.1746875 -2.54875 6.1746875 -3.9375 7.46875 C-5.484375 8.91015625 -5.484375 8.91015625 -7.1875 9.90625 C-9.390625 9.55859375 -9.390625 9.55859375 -11.1875 8.90625 C-9.78671602 7.37077525 -8.36629097 5.85319852 -6.9375 4.34375 C-5.75414062 3.07337891 -5.75414062 3.07337891 -4.546875 1.77734375 C-2.1875 -0.09375 -2.1875 -0.09375 0 0 Z " fill="#A17C0B" transform="translate(383.1875,137.09375)"/>
<path d="M0 0 C2.87760072 3.40080085 3.46951823 5.40855469 5 10 C0.38 10 -4.24 10 -9 10 C-9.99 8.02 -10.98 6.04 -12 4 C-10.68 4.33 -9.36 4.66 -8 5 C-8 5.99 -8 6.98 -8 8 C-3.545 7.505 -3.545 7.505 1 7 C0.67 4.69 0.34 2.38 0 0 Z " fill="#E1B01E" transform="translate(131,76)"/>
<path d="M0 0 C1.1989072 3.59672159 0.73847672 4.17514265 -0.6875 7.5625 C-2.68140541 12.74111545 -4.01097249 17.90399368 -5.1875 23.3125 C-5.35403076 24.07699463 -5.52056152 24.84148926 -5.69213867 25.62915039 C-6.56731376 29.73829724 -7.34660624 33.84863962 -8 38 C-8.33 38 -8.66 38 -9 38 C-8.76624813 26.54615816 -7.17864964 12.35729928 -2 2 C-1.34 2 -0.68 2 0 2 C0 1.34 0 0.68 0 0 Z " fill="#362100" transform="translate(95,138)"/>
<path d="M0 0 C2.64 0 5.28 0 8 0 C8 5.28 8 10.56 8 16 C5.36 16 2.72 16 0 16 C0 10.72 0 5.44 0 0 Z M1 1 C1 5.29 1 9.58 1 14 C2.65 14 4.3 14 6 14 C7.31262571 12.91447634 7.31262571 12.91447634 7.09765625 10.27734375 C7.08605469 9.17519531 7.07445312 8.07304687 7.0625 6.9375 C7.05347656 5.83277344 7.04445313 4.72804687 7.03515625 3.58984375 C7.02355469 2.73519531 7.01195312 1.88054687 7 1 C5.02 1 3.04 1 1 1 Z " fill="#02102B" transform="translate(250,211)"/>
<path d="M0 0 C2.64 0 5.28 0 8 0 C8 5.28 8 10.56 8 16 C5.36 16 2.72 16 0 16 C0 10.72 0 5.44 0 0 Z M1 2 C1 6.29 1 10.58 1 15 C2.98 15 4.96 15 7 15 C7.02686553 13.02090602 7.04633375 11.04171029 7.0625 9.0625 C7.07410156 7.96035156 7.08570313 6.85820312 7.09765625 5.72265625 C7.31262571 3.08552366 7.31262571 3.08552366 6 2 C4.35 2 2.7 2 1 2 Z " fill="#021029" transform="translate(250,148)"/>
<path d="M0 0 C0.66 0 1.32 0 2 0 C0.60652624 3.15204981 -1.02485079 5.26171773 -3.4765625 7.671875 C-4.48203125 8.66767578 -4.48203125 8.66767578 -5.5078125 9.68359375 C-6.20648438 10.36550781 -6.90515625 11.04742187 -7.625 11.75 C-8.33140625 12.44738281 -9.0378125 13.14476562 -9.765625 13.86328125 C-11.50598703 15.58012488 -13.25084981 17.29211832 -15 19 C-15.99 18.67 -16.98 18.34 -18 18 C-17.34 18 -16.68 18 -16 18 C-15.73832031 17.41089844 -15.47664063 16.82179687 -15.20703125 16.21484375 C-13.9357725 13.88214566 -12.59769469 12.39645632 -10.6875 10.5625 C-10.06875 9.96179688 -9.45 9.36109375 -8.8125 8.7421875 C-7.9153125 7.87980469 -7.9153125 7.87980469 -7 7 C-5.6078125 5.6078125 -5.6078125 5.6078125 -4.1875 4.1875 C-2.79166667 2.79166667 -1.39583333 1.39583333 0 0 Z " fill="#494949" transform="translate(377,118)"/>
<path d="M0 0 C0.33 0.99 0.66 1.98 1 3 C-3.95 5.97 -3.95 5.97 -9 9 C-9 8.34 -9 7.68 -9 7 C-10.32 6.67 -11.64 6.34 -13 6 C-13 5.34 -13 4.68 -13 4 C-13.66 4 -14.32 4 -15 4 C-14.67 3.34 -14.34 2.68 -14 2 C-13.24074219 2.02320313 -12.48148438 2.04640625 -11.69921875 2.0703125 C-10.20841797 2.09738281 -10.20841797 2.09738281 -8.6875 2.125 C-7.20830078 2.15980469 -7.20830078 2.15980469 -5.69921875 2.1953125 C-2.77593473 2.20682639 -2.77593473 2.20682639 0 0 Z " fill="#F5BB17" transform="translate(173,45)"/>
<path d="M0 0 C1.21839821 -0.00287018 1.21839821 -0.00287018 2.46141052 -0.00579834 C4.17699494 -0.00715847 5.8925897 -0.00347404 7.6081543 0.00488281 C10.23965444 0.01559878 12.87047404 0.0049748 15.50195312 -0.0078125 C17.16797026 -0.00649115 18.83398697 -0.00392925 20.5 0 C21.68439415 -0.00607269 21.68439415 -0.00607269 22.89271545 -0.01226807 C28.453664 0.03569525 28.453664 0.03569525 30.68359375 2.265625 C29.54817139 2.24991455 28.41274902 2.2342041 27.24291992 2.21801758 C23.03303106 2.16374468 18.82317316 2.12928463 14.61303711 2.10083008 C12.79039308 2.0857374 10.96778539 2.06526105 9.14526367 2.03930664 C6.52643875 2.00294397 3.90809368 1.98590376 1.2890625 1.97265625 C0.47334274 1.95717239 -0.34237701 1.94168854 -1.18281555 1.92573547 C-5.43181394 1.7474082 -5.43181394 1.7474082 -8.93070984 3.78691101 C-9.61662956 4.51887444 -9.61662956 4.51887444 -10.31640625 5.265625 C-10.97640625 5.265625 -11.63640625 5.265625 -12.31640625 5.265625 C-10.27541223 -0.85735707 -5.51758908 -0.02836281 0 0 Z " fill="#1B2630" transform="translate(372.31640625,202.734375)"/>
<path d="M0 0 C2.64 0 5.28 0 8 0 C8 4.95 8 9.9 8 15 C5.36 15 2.72 15 0 15 C0 10.05 0 5.1 0 0 Z M2 1 C2 1.66 2 2.32 2 3 C2.66 3 3.32 3 4 3 C4 3.66 4 4.32 4 5 C3.01 5 2.02 5 1 5 C1 7.97 1 10.94 1 14 C2.98 14 4.96 14 7 14 C7 9.71 7 5.42 7 1 C5.35 1 3.7 1 2 1 Z " fill="#050F23" transform="translate(320,149)"/>
<path d="M0 0 C2.53069408 2.53069408 3.68376954 3.98014063 5.1875 7.0625 C5.53167969 7.75472656 5.87585938 8.44695312 6.23046875 9.16015625 C7 11 7 11 7 13 C1.72 13 -3.56 13 -9 13 C-5.69756694 9.69756694 -1.55028914 10.35002224 3 10 C2.01 6.7 1.02 3.4 0 0 Z " fill="#9A791A" transform="translate(209,104)"/>
<path d="M0 0 C0.66 0 1.32 0 2 0 C2 7.59 2 15.18 2 23 C0.68 22.67 -0.64 22.34 -2 22 C-1.67 21.67 -1.34 21.34 -1 21 C-0.84313751 19.44051458 -0.74923361 17.87457332 -0.68359375 16.30859375 C-0.62075195 14.89223633 -0.62075195 14.89223633 -0.55664062 13.44726562 C-0.51732422 12.45404297 -0.47800781 11.46082031 -0.4375 10.4375 C-0.37272461 8.94186523 -0.37272461 8.94186523 -0.30664062 7.41601562 C-0.20019702 4.9441585 -0.09818072 2.4721969 0 0 Z " fill="#00031A" transform="translate(373,219)"/>
<path d="M0 0 C2.85793316 2.85793316 2.40799941 5.14665584 2.625 9.125 C2.69976562 10.40632813 2.77453125 11.68765625 2.8515625 13.0078125 C2.92503906 14.48894531 2.92503906 14.48894531 3 16 C1.35 16.99 -0.3 17.98 -2 19 C-2 18.34 -2 17.68 -2 17 C-3.98 17 -5.96 17 -8 17 C-8 16.67 -8 16.34 -8 16 C-5.36 16 -2.72 16 0 16 C0 10.72 0 5.44 0 0 Z " fill="#649FEC" transform="translate(305,117)"/>
<path d="M0 0 C1.32 0 2.64 0 4 0 C4 3.96 4 7.92 4 12 C2.68 11.67 1.36 11.34 0 11 C0 7.37 0 3.74 0 0 Z " fill="#020101" transform="translate(299,119)"/>
<path d="M0 0 C0 5.37815765 -4.49715555 9.17428467 -8 13 C-10.26216747 14.91121439 -12.48112643 16.42570402 -15 18 C-15.66 17.67 -16.32 17.34 -17 17 C-11.39 11.39 -5.78 5.78 0 0 Z " fill="#281F1A" transform="translate(414,373)"/>
<path d="M0 0 C-1.00882521 2.6405862 -1.60564508 3.78509466 -4.12890625 5.16015625 C-5.33353516 5.60681641 -5.33353516 5.60681641 -6.5625 6.0625 C-8.96837744 6.90462981 -8.96837744 6.90462981 -11 8 C-11.33 8.99 -11.66 9.98 -12 11 C-13.65 10.67 -15.3 10.34 -17 10 C-14.07647233 6.81321628 -11.18387159 4.78276705 -7.375 2.75 C-6.41335937 2.22921875 -5.45171875 1.7084375 -4.4609375 1.171875 C-2 0 -2 0 0 0 Z " fill="#D8C4B4" transform="translate(115,320)"/>
<path d="M0 0 C3.47440857 1.8385412 5.83629093 3.42731483 7.0625 7.2421875 C4.5875 6.7471875 4.5875 6.7471875 2.0625 6.2421875 C1.7325 4.9221875 1.4025 3.6021875 1.0625 2.2421875 C-5.22601034 0.94602478 -5.22601034 0.94602478 -10.9375 3.2421875 C-11.5975 2.5821875 -12.2575 1.9221875 -12.9375 1.2421875 C-8.85902419 -1.36803702 -4.54843052 -1.77902323 0 0 Z " fill="#D7C7BA" transform="translate(455.9375,242.7578125)"/>
<path d="M0 0 C0.33 0 0.66 0 1 0 C1 3.3 1 6.6 1 10 C-9.56 10 -20.12 10 -31 10 C-31 9.67 -31 9.34 -31 9 C-30.16227051 8.97494385 -29.32454102 8.9498877 -28.46142578 8.92407227 C-25.35647744 8.82899643 -22.25169819 8.72975975 -19.14697266 8.62768555 C-17.14105193 8.56301749 -15.13497772 8.50316894 -13.12890625 8.44335938 C-11.24365234 8.38051758 -11.24365234 8.38051758 -9.3203125 8.31640625 C-8.15773926 8.27974854 -6.99516602 8.24309082 -5.79736328 8.20532227 C-3.0464499 8.18178341 -3.0464499 8.18178341 -1 7 C-0.59270772 4.67843403 -0.25561323 2.3431213 0 0 Z " fill="#200E00" transform="translate(179,146)"/>
<path d="M0 0 C0.8353125 0.37125 0.8353125 0.37125 1.6875 0.75 C-4.0625 4.75 -4.0625 4.75 -6.3125 4.75 C-6.3125 13.99 -6.3125 23.23 -6.3125 32.75 C-6.6425 32.75 -6.9725 32.75 -7.3125 32.75 C-7.4363616 28.69343719 -7.52695733 24.63761022 -7.5871582 20.57958984 C-7.6122593 19.20016298 -7.64634873 17.82086858 -7.68969727 16.44189453 C-7.75052875 14.45664128 -7.77607937 12.47040641 -7.80078125 10.484375 C-7.82696533 9.29038086 -7.85314941 8.09638672 -7.88012695 6.86621094 C-7.3125 3.75 -7.3125 3.75 -4.92651367 1.31347656 C-2.3125 -0.25 -2.3125 -0.25 0 0 Z " fill="#1C0700" transform="translate(140.3125,141.25)"/>
<path d="M0 0 C0.33 0 0.66 0 1 0 C1.19546065 4.30013434 0.9955516 6.00889681 -1 10 C4.61 10 10.22 10 16 10 C16 9.01 16 8.02 16 7 C16.66 7 17.32 7 18 7 C17.67 8.32 17.34 9.64 17 11 C10.07 11 3.14 11 -4 11 C-2.68 7.37 -1.36 3.74 0 0 Z " fill="#97781D" transform="translate(189,75)"/>
<path d="M0 0 C0.33 0.66 0.66 1.32 1 2 C0.34 2 -0.32 2 -1 2 C-1.33 2.66 -1.66 3.32 -2 4 C-2.96421875 3.97679688 -3.9284375 3.95359375 -4.921875 3.9296875 C-6.18515625 3.91164063 -7.4484375 3.89359375 -8.75 3.875 C-10.62945312 3.84019531 -10.62945312 3.84019531 -12.546875 3.8046875 C-15.72820492 3.98462698 -17.36521896 4.31001418 -20 6 C-18.25 2.125 -18.25 2.125 -16 1 C-13.28737884 0.7677354 -10.59226874 0.58063765 -7.875 0.4375 C-7.12089844 0.39431641 -6.36679688 0.35113281 -5.58984375 0.30664062 C-3.72678112 0.2005168 -1.86341476 0.09974999 0 0 Z " fill="#271400" transform="translate(216,116)"/>
<path d="M0 0 C2.11819479 3.17729218 2.43397025 4.71781432 2.8125 8.4375 C2.92207031 9.38496094 3.03164063 10.33242187 3.14453125 11.30859375 C2.97396009 14.48490534 2.11434293 15.68897401 0 18 C-2.64 17.67 -5.28 17.34 -8 17 C-8 16.67 -8 16.34 -8 16 C-5.36 16 -2.72 16 0 16 C0 10.72 0 5.44 0 0 Z " fill="#649FEE" transform="translate(305,86)"/>
<path d="M0 0 C0.33 0 0.66 0 1 0 C1 4.29 1 8.58 1 13 C2.65 13 4.3 13 6 13 C4.35 14.98 2.7 16.96 1 19 C0.67 18.34 0.34 17.68 0 17 C-2.32156597 16.59270772 -4.6568787 16.25561323 -7 16 C-7 15.67 -7 15.34 -7 15 C-4.69 15 -2.38 15 0 15 C0 10.05 0 5.1 0 0 Z " fill="#325D98" transform="translate(328,149)"/>
<path d="M0 0 C1.32 0.66 2.64 1.32 4 2 C3.35546875 2.47953125 2.7109375 2.9590625 2.046875 3.453125 C-0.87111577 7.08390741 -0.66727241 10.2150239 -0.75 14.75 C-0.77964844 15.54277344 -0.80929688 16.33554688 -0.83984375 17.15234375 C-0.91027787 19.10102094 -0.95743482 21.05051495 -1 23 C-1.33 23 -1.66 23 -2 23 C-2.25417629 19.5430244 -2.47407622 16.08471174 -2.6875 12.625 C-2.76033203 11.64015625 -2.83316406 10.6553125 -2.90820312 9.640625 C-2.96298828 8.69960937 -3.01777344 7.75859375 -3.07421875 6.7890625 C-3.13182373 5.91975098 -3.18942871 5.05043945 -3.2487793 4.15478516 C-3.16668213 3.44370605 -3.08458496 2.73262695 -3 2 C-2.01 1.34 -1.02 0.68 0 0 Z " fill="#A78213" transform="translate(196,116)"/>
<path d="M0 0 C1.74627478 2.61941217 2.38722388 4.03824877 3 7 C4.65 7 6.3 7 8 7 C8 7.66 8 8.32 8 9 C2.37458159 8.54996653 -0.61487125 7.31558515 -5 4 C-4.0409375 3.8453125 -4.0409375 3.8453125 -3.0625 3.6875 C-2.381875 3.460625 -1.70125 3.23375 -1 3 C-0.67 2.01 -0.34 1.02 0 0 Z " fill="#DEAB16" transform="translate(103,232)"/>
<path d="M0 0 C-0.66 1.32 -1.32 2.64 -2 4 C-5.63 4 -9.26 4 -13 4 C-13 5.98 -13 7.96 -13 10 C-13.33 10 -13.66 10 -14 10 C-14 7.36 -14 4.72 -14 2 C-12.95199219 1.90912109 -12.95199219 1.90912109 -11.8828125 1.81640625 C-10.97273437 1.73261719 -10.06265625 1.64882812 -9.125 1.5625 C-8.22007812 1.48128906 -7.31515625 1.40007812 -6.3828125 1.31640625 C-3.9906624 0.99876009 -2.3900132 0 0 0 Z " fill="#D9AD26" transform="translate(178,201)"/>
<path d="M0 0 C2.29160319 -0.02692484 4.58329546 -0.04636124 6.875 -0.0625 C8.15117187 -0.07410156 9.42734375 -0.08570313 10.7421875 -0.09765625 C14 0 14 0 16 1 C17.09506492 4.28519475 17.09960608 6.73663415 17.0625 10.1875 C17.05347656 11.27417969 17.04445312 12.36085937 17.03515625 13.48046875 C17.02355469 14.31191406 17.01195312 15.14335937 17 16 C16.67 16 16.34 16 16 16 C15.96261719 15.32453125 15.92523438 14.6490625 15.88671875 13.953125 C15.78810547 12.61507812 15.78810547 12.61507812 15.6875 11.25 C15.60048828 9.92742187 15.60048828 9.92742187 15.51171875 8.578125 C14.90593416 5.52608051 14.28098856 4.12634527 12 2 C9.04448474 1.30047511 9.04448474 1.30047511 5.8125 1.25 C4.72582031 1.19328125 3.63914063 1.1365625 2.51953125 1.078125 C1.68808594 1.05234375 0.85664063 1.0265625 0 1 C0 0.67 0 0.34 0 0 Z " fill="#D1A323" transform="translate(164,140)"/>
<path d="M0 0 C2 2 2 2 2.125 5.625 C2.08375 6.73875 2.0425 7.8525 2 9 C0 8 0 8 -1.125 4.9375 C-1.41375 3.968125 -1.7025 2.99875 -2 2 C-6.58403214 2.54571811 -9.92604189 3.87043099 -14 6 C-14.66 6 -15.32 6 -16 6 C-16 5.34 -16 4.68 -16 4 C-10.58648931 1.25028028 -6.22926403 -0.76276702 0 0 Z " fill="#E7B221" transform="translate(145,63)"/>
<path d="M0 0 C0.4125 0.45375 0.825 0.9075 1.25 1.375 C3.06408095 3.05950374 4.75285627 3.99265971 7 5 C4.36 5 1.72 5 -1 5 C-1 10.28 -1 15.56 -1 21 C-1.33 21 -1.66 21 -2 21 C-2.05390357 18.06225537 -2.0936255 15.12549768 -2.125 12.1875 C-2.14175781 11.35412109 -2.15851563 10.52074219 -2.17578125 9.66210938 C-2.18222656 8.85966797 -2.18867188 8.05722656 -2.1953125 7.23046875 C-2.20578613 6.49207764 -2.21625977 5.75368652 -2.22705078 4.99291992 C-2 3 -2 3 0 0 Z " fill="#6096DB" transform="translate(298,112)"/>
<path d="M0 0 C0.33 0.99 0.66 1.98 1 3 C-0.59939861 5.13253148 -2.21116181 7.03819527 -4 9 C-5.04446458 10.22679007 -6.0861356 11.45596401 -7.125 12.6875 C-8.99919096 14.89094072 -10.93300563 16.9758132 -13 19 C-11.68462703 15.30132749 -10.08520735 12.55108685 -7.625 9.5 C-7.00753906 8.72785156 -6.39007813 7.95570312 -5.75390625 7.16015625 C-5.17511719 6.44730469 -4.59632812 5.73445313 -4 5 C-3.195625 3.989375 -2.39125 2.97875 -1.5625 1.9375 C-1.046875 1.298125 -0.53125 0.65875 0 0 Z " fill="#898988" transform="translate(106,90)"/>
<path d="M0 0 C0.66 0 1.32 0 2 0 C2 1.65 2 3.3 2 5 C1.01 5 0.02 5 -1 5 C-2.6083124 6.86655232 -2.6083124 6.86655232 -4 9 C-5.89353366 10.89353366 -7.84526801 12.4198632 -10 14 C-10.66 13.67 -11.32 13.34 -12 13 C-11.21753906 12.22914063 -10.43507813 11.45828125 -9.62890625 10.6640625 C-8.60663943 9.65117427 -7.58451119 8.63814616 -6.5625 7.625 C-6.04623047 7.11710938 -5.52996094 6.60921875 -4.99804688 6.0859375 C-2.142867 3.31431064 -2.142867 3.31431064 0 0 Z " fill="#3070C1" transform="translate(341,134)"/>
<path d="M0 0 C3.3 0 6.6 0 10 0 C10.33 1.32 10.66 2.64 11 4 C10.67 4.33 10.34 4.66 10 5 C9.76636119 6.84891946 9.58696365 8.70488031 9.4375 10.5625 C9.35371094 11.57441406 9.26992188 12.58632812 9.18359375 13.62890625 C9.12300781 14.41136719 9.06242187 15.19382812 9 16 C8.67 16 8.34 16 8 16 C8 11.05 8 6.1 8 1 C5.36 1 2.72 1 0 1 C0 0.67 0 0.34 0 0 Z " fill="#548ACE" transform="translate(320,54)"/>
<path d="M0 0 C0 4.68969985 -2.83164129 7.69066046 -6 11 C-8.875 12 -8.875 12 -11 12 C-7.49102731 7.81576108 -3.91939465 3.80411834 0 0 Z " fill="#040E25" transform="translate(334,162)"/>
<path d="M0 0 C0 0.66 0 1.32 0 2 C-5.65275661 5.80946641 -10.22613615 6.72740991 -17 7 C-14.28871865 5.1924791 -11.9530864 4.10554009 -8.9375 2.9375 C-1.38867925 0 -1.38867925 0 0 0 Z " fill="#CCBCAE" transform="translate(412,303)"/>
<path d="M0 0 C0 3.78713193 -1.26892594 5.83354401 -3 9.1875 C-3.556875 10.27417969 -4.11375 11.36085938 -4.6875 12.48046875 C-5.120625 13.31191406 -5.55375 14.14335938 -6 15 C-7.22419163 11.06204091 -6.48320272 8.83887763 -5 5 C-4.34 5 -3.68 5 -3 5 C-2.690625 4.360625 -2.38125 3.72125 -2.0625 3.0625 C-1 1 -1 1 0 0 Z " fill="#927312" transform="translate(174,70)"/>
<path d="M0 0 C0.99 0.33 1.98 0.66 3 1 C3 2.32 3 3.64 3 5 C3.66 5 4.32 5 5 5 C5.33 7.64 5.66 10.28 6 13 C2.10014426 8.84015388 1.10830253 5.44915409 0 0 Z " fill="#C49814" transform="translate(106,55)"/>
<path d="M0 0 C0.99 0.33 1.98 0.66 3 1 C2.67 2.65 2.34 4.3 2 6 C1.34 6 0.68 6 0 6 C0 6.66 0 7.32 0 8 C-1.32 8.33 -2.64 8.66 -4 9 C-2.68 6.03 -1.36 3.06 0 0 Z " fill="#EFDCCE" transform="translate(420,286)"/>
<path d="M0 0 C0.99 0 1.98 0 3 0 C3 0.66 3 1.32 3 2 C3.66 2 4.32 2 5 2 C5 3.32 5 4.64 5 6 C5.66 6.66 6.32 7.32 7 8 C4.625 7.75 4.625 7.75 2 7 C0.2058242 4.43689172 0 3.16880694 0 0 Z " fill="#F0B816" transform="translate(147,70)"/>
<path d="M0 0 C4.95 0.99 4.95 0.99 10 2 C10 2.33 10 2.66 10 3 C8.02 3 6.04 3 4 3 C3.67 4.32 3.34 5.64 3 7 C0 2.25 0 2.25 0 0 Z " fill="#E1AF25" transform="translate(101,46)"/>
<path d="M0 0 C0.33 1.32 0.66 2.64 1 4 C-0.6875 6.3125 -0.6875 6.3125 -3 8 C-4.32 7.67 -5.64 7.34 -7 7 C-4.69 4.69 -2.38 2.38 0 0 Z " fill="#926F0C" transform="translate(379,139)"/>
<path d="M0 0 C0.33 0 0.66 0 1 0 C0.125 6.875 0.125 6.875 -1 8 C-3.67058851 8.14115161 -6.32432238 8.04247107 -9 8 C-9.33 7.34 -9.66 6.68 -10 6 C-7.36 5.67 -4.72 5.34 -2 5 C-1.34 3.35 -0.68 1.7 0 0 Z " fill="#5790E0" transform="translate(307,64)"/>
<path d="M0 0 C0 2 0 2 -1.9375 4 C-2.618125 4.66 -3.29875 5.32 -4 6 C-4.33 6.66 -4.66 7.32 -5 8 C-6.97888961 8.72693904 -8.97954558 9.39816251 -11 10 C-10.06409496 8.8944811 -9.12620142 7.79064547 -8.1875 6.6875 C-7.66542969 6.07261719 -7.14335937 5.45773438 -6.60546875 4.82421875 C-2.35974304 0 -2.35974304 0 0 0 Z " fill="#BE941D" transform="translate(187,33)"/>
<path d="M0 0 C-2.61478952 2.56761548 -3.94528576 2.9956345 -7.671875 3.29296875 C-9.03156035 3.27316751 -10.3910934 3.23759202 -11.75 3.1875 C-12.44738281 3.17396484 -13.14476562 3.16042969 -13.86328125 3.14648438 C-15.57585541 3.1112945 -17.28802941 3.05749155 -19 3 C-19 2.67 -19 2.34 -19 2 C-16.77149723 1.66225668 -14.54216533 1.3299813 -12.3125 1 C-10.45044922 0.7215625 -10.45044922 0.7215625 -8.55078125 0.4375 C-5.64113629 0.07899589 -2.92299978 -0.08942256 0 0 Z " fill="#73665B" transform="translate(312,433)"/>
<path d="M0 0 C2.64 0 5.28 0 8 0 C8 0.99 8 1.98 8 3 C5.36 3 2.72 3 0 3 C0 2.01 0 1.02 0 0 Z " fill="#2F5992" transform="translate(250,195)"/>
<path d="M0 0 C0.66 0.99 1.32 1.98 2 3 C1.40844669 4.31823302 0.80128537 5.62947051 0.1875 6.9375 C-0.14894531 7.66839844 -0.48539062 8.39929688 -0.83203125 9.15234375 C-2 11 -2 11 -5 12 C-3.41037341 7.96479403 -1.71767682 3.98188718 0 0 Z " fill="#D0BEB0" transform="translate(431,263)"/>
<path d="M0 0 C2.58844848 2.58844848 2.23877442 4.39883667 2.265625 7.9296875 C1.96218077 10.29476756 1.16625267 11.93591789 0 14 C-0.19627391 12.41773035 -0.38165538 10.83410729 -0.5625 9.25 C-0.66691406 8.36828125 -0.77132813 7.4865625 -0.87890625 6.578125 C-0.99456676 4.11567549 -0.73638695 2.33461936 0 0 Z " fill="#B3A498" transform="translate(463,250)"/>
<path d="M0 0 C0.33 0 0.66 0 1 0 C1.03738281 0.74765625 1.07476562 1.4953125 1.11328125 2.265625 C1.17902344 3.25046875 1.24476563 4.2353125 1.3125 5.25 C1.37050781 6.22453125 1.42851562 7.1990625 1.48828125 8.203125 C2.04636524 11.25341611 2.96369776 12.70711276 5 15 C3.35 14.67 1.7 14.34 0 14 C0 9.38 0 4.76 0 0 Z " fill="#D3A528" transform="translate(132,188)"/>
<path d="M0 0 C0.99 0.33 1.98 0.66 3 1 C0.69 3.31 -1.62 5.62 -4 8 C-4.99 7.67 -5.98 7.34 -7 7 C-6.34 7 -5.68 7 -5 7 C-4.731875 6.401875 -4.46375 5.80375 -4.1875 5.1875 C-3.01506533 3.02775192 -1.80630718 1.64209744 0 0 Z " fill="#4F4F4F" transform="translate(366,129)"/>
<path d="M0 0 C0.66 0 1.32 0 2 0 C1.40895235 4.84659077 0.02055843 8.60748167 -2 13 C-3.15941038 9.52176885 -2.70820884 7.54104422 -2 4 C-1.34 4 -0.68 4 0 4 C0 2.68 0 1.36 0 0 Z " fill="#9B7810" transform="translate(215,56)"/>
<path d="M0 0 C1.65 0 3.3 0 5 0 C5 0.99 5 1.98 5 3 C8.3 3 11.6 3 15 3 C15 3.33 15 3.66 15 4 C4.84682713 4.63019694 4.84682713 4.63019694 1.3125 2 C0.879375 1.34 0.44625 0.68 0 0 Z " fill="#291600" transform="translate(155,44)"/>
<path d="M0 0 C0.33 0.66 0.66 1.32 1 2 C-0.54442235 5.63393495 -1.48567857 6.78822059 -5.1875 8.3125 C-6.5796875 8.6528125 -6.5796875 8.6528125 -8 9 C-7.04270084 7.87411986 -6.08412105 6.7493285 -5.125 5.625 C-4.59132812 4.99851562 -4.05765625 4.37203125 -3.5078125 3.7265625 C-2.38567993 2.44163349 -1.20628025 1.20628025 0 0 Z " fill="#CCA212" transform="translate(141,37)"/>
<path d="M0 0 C2.66666667 0 5.33333333 0 8 0 C7.67 1.32 7.34 2.64 7 4 C4.69 4 2.38 4 0 4 C0 2.66666667 0 1.33333333 0 0 Z " fill="#5C9DEF" transform="translate(321,82)"/>
<path d="M0 0 C1.32 0.33 2.64 0.66 4 1 C3.67 1.66 3.34 2.32 3 3 C2.77049681 5.204364 2.58924067 7.41392173 2.4375 9.625 C2.35371094 10.81351563 2.26992187 12.00203125 2.18359375 13.2265625 C2.12300781 14.14179688 2.06242188 15.05703125 2 16 C1.67 16 1.34 16 1 16 C0.67 10.72 0.34 5.44 0 0 Z " fill="#63A0F0" transform="translate(234,210)"/>
<path d="M0 0 C1.5 1.375 1.5 1.375 3 3 C3 3.66 3 4.32 3 5 C3.66 5 4.32 5 5 5 C5.33 6.32 5.66 7.64 6 9 C3.5625 7.875 3.5625 7.875 1 6 C0.1875 2.8125 0.1875 2.8125 0 0 Z " fill="#221200" transform="translate(108,63)"/>
<path d="M0 0 C0 4.38968456 -2.12805101 5.76905739 -5 9 C-5.99 8.67 -6.98 8.34 -8 8 C-5.36 5.36 -2.72 2.72 0 0 Z " fill="#332922" transform="translate(414,373)"/>
<path d="M0 0 C0.33 0 0.66 0 1 0 C1 2.31 1 4.62 1 7 C3.97 7.495 3.97 7.495 7 8 C7 8.33 7 8.66 7 9 C4.36 9 1.72 9 -1 9 C-0.67 6.03 -0.34 3.06 0 0 Z " fill="#34609D" transform="translate(251,202)"/>
<path d="M0 0 C2.31 0 4.62 0 7 0 C7 0.99 7 1.98 7 3 C4.36 3 1.72 3 -1 3 C-0.67 2.01 -0.34 1.02 0 0 Z " fill="#2D5593" transform="translate(251,177)"/>
<path d="M0 0 C1 2 1 2 0.4375 4 C-1.57302108 6.79724672 -3.74418077 7.15065585 -7 8 C-6.02133662 6.85373678 -5.04205413 5.70800212 -4.0625 4.5625 C-3.51722656 3.92441406 -2.97195313 3.28632813 -2.41015625 2.62890625 C-1.63204305 1.73008851 -0.84063472 0.84063472 0 0 Z " fill="#85670A" transform="translate(366,152)"/>
<path d="M0 0 C2 2 2 2 3 6 C0.03 6 -2.94 6 -6 6 C-2 4 -2 4 0 4 C0 2.68 0 1.36 0 0 Z " fill="#A28012" transform="translate(133,80)"/>
<path d="M0 0 C0.33 0 0.66 0 1 0 C1.17942163 3.94727588 1.09350689 6.5980513 -1 10 C-1.66 10 -2.32 10 -3 10 C-2.01 6.7 -1.02 3.4 0 0 Z " fill="#8D7110" transform="translate(189,75)"/>
<path d="M0 0 C1.37562854 1.28965176 2.70766393 2.62689293 4 4 C4 4.66 4 5.32 4 6 C2.35 6.33 0.7 6.66 -1 7 C-0.67 4.69 -0.34 2.38 0 0 Z " fill="#261703" transform="translate(145,71)"/>
<path d="M0 0 C0.33 0.99 0.66 1.98 1 3 C0 4 0 4 -2.72265625 4.09765625 C-4.37587891 4.08025391 -4.37587891 4.08025391 -6.0625 4.0625 C-7.16722656 4.05347656 -8.27195313 4.04445313 -9.41015625 4.03515625 C-10.69212891 4.01775391 -10.69212891 4.01775391 -12 4 C-12 3.67 -12 3.34 -12 3 C-11.38511719 2.95101562 -10.77023438 2.90203125 -10.13671875 2.8515625 C-9.32847656 2.77679688 -8.52023438 2.70203125 -7.6875 2.625 C-6.88699219 2.55539063 -6.08648437 2.48578125 -5.26171875 2.4140625 C-2.72775559 2.10435574 -2.72775559 2.10435574 0 0 Z " fill="#C09214" transform="translate(173,45)"/>
<path d="M0 0 C0.66 0.33 1.32 0.66 2 1 C0.35 2.98 -1.3 4.96 -3 7 C-4.32 6.34 -5.64 5.68 -7 5 C-4.69 3.35 -2.38 1.7 0 0 Z " fill="#221C16" transform="translate(378,404)"/>
<path d="M0 0 C2.97 0.495 2.97 0.495 6 1 C6 3.64 6 6.28 6 9 C4 8 4 8 3 5.0625 C2.67 4.051875 2.34 3.04125 2 2 C1.34 1.34 0.68 0.68 0 0 Z " fill="#C79811" transform="translate(141,63)"/>
<path d="M0 0 C0.80824219 0.10183594 1.61648437 0.20367188 2.44921875 0.30859375 C3.06410156 0.39238281 3.67898437 0.47617187 4.3125 0.5625 C4.3125 0.8925 4.3125 1.2225 4.3125 1.5625 C2.0025 1.5625 -0.3075 1.5625 -2.6875 1.5625 C-3.0175 2.2225 -3.3475 2.8825 -3.6875 3.5625 C-3.6875 2.9025 -3.6875 2.2425 -3.6875 1.5625 C-5.0075 1.2325 -6.3275 0.9025 -7.6875 0.5625 C-4.59271121 -0.46909626 -3.16118607 -0.41232862 0 0 Z " fill="#525252" transform="translate(97.6875,27.4375)"/>
<path d="M0 0 C0.33 0.99 0.66 1.98 1 3 C2.65 3 4.3 3 6 3 C6 3.33 6 3.66 6 4 C3.03 4 0.06 4 -3 4 C-2.67 3.01 -2.34 2.02 -2 1 C-1.34 0.67 -0.68 0.34 0 0 Z " fill="#9E7915" transform="translate(344,175)"/>
<path d="M0 0 C0.99 0.495 0.99 0.495 2 1 C1.67 1.66 1.34 2.32 1 3 C0.67 2.01 0.34 1.02 0 0 Z M-3 3 C-1.68 3 -0.36 3 1 3 C1 4.65 1 6.3 1 8 C0.67 7.34 0.34 6.68 0 6 C-0.99 5.67 -1.98 5.34 -3 5 C-3 4.34 -3 3.68 -3 3 Z " fill="#E6AF14" transform="translate(179,161)"/>
<path d="M0 0 C0.66 0.33 1.32 0.66 2 1 C1.67 1.99 1.34 2.98 1 4 C-1.31 4.33 -3.62 4.66 -6 5 C-2.25 1.125 -2.25 1.125 0 0 Z " fill="#1B0B02" transform="translate(222,41)"/>
</svg>
